<?xml version="1.0" standalone="no"?><!DOCTYPE svg PUBLIC "-//W3C//DTD SVG 1.1//EN" "http://www.w3.org/Graphics/SVG/1.1/DTD/svg11.dtd">
<svg t="1625969422540" class="icon" viewBox="0 0 1024 1024" version="1.1" xmlns="http://www.w3.org/2000/svg" p-id="3994"
    width="200" height="200"><defs><style type="text/css"></style></defs><path d="M771.47117 1022.976767a102.297677 102.297677 0 0 1-45.522466-12.019977L512.14656 899.708067l-215.592354 110.992979a93.602374 93.602374 0 0 1-102.297677-8.183814 105.878095 105.878095 0 0 1-38.617373-102.297677L198.859925 664.934899l-169.046911-163.676283a111.248723 111.248723 0 0 1-25.574419-104.599374 98.717258 98.717258 0 0 1 79.792188-70.073909L318.548206 281.318611l105.366608-222.241703A98.973002 98.973002 0 0 1 512.14656 0a96.671305 96.671305 0 0 1 88.231746 58.56542L704.97768 281.318611l234.773169 42.453536a97.438537 97.438537 0 0 1 78.257722 71.096885 105.622351 105.622351 0 0 1-25.574419 104.855119L824.410218 664.934899l42.70928 237.842098a105.366607 105.366607 0 0 1-38.105885 100.507468 89.766211 89.766211 0 0 1-57.542443 20.715279z m0 0" p-id="3995"></path></svg>