<?xml version="1.0" encoding="UTF-8" ?>
<!DOCTYPE svg PUBLIC "-//W3C//DTD SVG 1.1//EN" "http://www.w3.org/Graphics/SVG/1.1/DTD/svg11.dtd">
<svg width="1024pt" height="1024pt" viewBox="0 0 1024 1024" version="1.1" xmlns="http://www.w3.org/2000/svg">
<g id="#000000ff">
<path fill="#000000" opacity="1.00" d=" M 502.67 0.00 L 508.29 0.00 C 508.41 262.33 508.31 524.67 508.34 787.00 C 508.22 825.28 508.59 863.57 508.16 901.84 C 445.30 934.50 382.20 966.70 319.28 999.23 C 309.74 1003.96 300.41 1009.09 290.85 1013.78 C 272.03 1022.43 250.33 1024.65 230.17 1019.84 C 212.52 1015.80 196.25 1006.32 183.71 993.29 C 160.30 969.47 149.33 934.18 155.29 901.29 C 169.58 823.54 183.78 745.76 198.18 668.03 C 198.61 666.27 198.29 664.44 196.87 663.23 C 141.79 609.96 86.76 556.61 31.68 503.33 C 11.37 482.83 -0.36 453.90 0.47 425.00 C 0.27 413.68 1.97 402.34 5.66 391.62 C 16.48 359.78 44.67 334.55 77.62 327.64 C 157.01 312.37 236.39 296.99 315.77 281.70 C 319.83 281.01 320.54 276.21 322.27 273.17 C 356.68 200.31 391.31 127.55 425.76 54.71 C 438.29 29.24 462.32 9.77 489.88 2.94 C 494.14 1.95 498.41 0.99 502.67 0.00 Z" />
</g>
<g id="#d6d6d6ff">
<path fill="#d6d6d6" opacity="1.00" d=" M 508.29 0.00 L 525.23 0.00 C 532.81 1.76 540.52 3.21 547.73 6.24 C 572.11 15.89 592.01 35.86 601.84 60.14 C 636.39 133.63 670.88 207.15 705.40 280.64 C 745.32 288.33 785.45 295.07 825.42 302.54 C 861.00 308.92 896.57 315.35 932.13 321.84 C 944.62 323.72 957.17 326.53 968.35 332.63 C 980.20 337.97 990.04 346.78 998.65 356.34 C 1007.62 366.97 1014.34 379.48 1018.11 392.87 C 1023.51 410.35 1024.63 429.15 1021.11 447.11 C 1018.57 460.02 1013.14 472.17 1006.42 483.42 C 999.07 494.46 990.09 504.43 979.78 512.78 C 963.88 528.54 948.09 544.42 932.26 560.26 C 926.96 565.99 920.49 570.47 915.24 576.24 C 904.10 587.43 892.91 598.58 881.75 609.75 C 875.00 616.34 868.68 623.40 861.30 629.31 C 851.99 638.32 842.97 647.64 833.75 656.75 C 830.97 659.64 827.79 662.17 825.41 665.41 C 825.12 668.69 826.37 671.90 826.83 675.14 C 840.10 749.19 853.44 823.23 866.72 897.28 C 870.80 916.77 869.87 937.43 863.23 956.27 C 858.42 971.21 849.26 984.27 838.75 995.75 C 826.96 1007.13 812.89 1016.49 797.02 1020.99 C 793.10 1022.01 789.16 1022.94 785.26 1024.00 L 771.85 1024.00 C 766.64 1022.72 761.23 1023.08 755.98 1022.06 C 744.91 1020.01 734.06 1016.37 724.28 1010.75 C 716.03 1006.25 707.35 1002.57 699.28 997.74 C 690.11 992.88 680.63 988.59 671.67 983.34 C 660.45 978.09 649.84 971.67 638.66 966.34 C 630.85 962.61 623.54 957.93 615.67 954.34 C 608.02 950.83 600.93 946.26 593.34 942.66 C 589.33 940.66 585.29 938.74 581.36 936.61 C 570.72 930.36 559.29 925.62 548.67 919.34 C 537.21 913.99 526.40 907.39 514.98 901.98 C 512.86 900.74 510.38 901.27 508.16 901.84 C 508.59 863.57 508.22 825.28 508.34 787.00 C 508.31 524.67 508.41 262.33 508.29 0.00 Z" />
</g>
</svg>
