<?xml version="1.0" encoding="UTF-8" ?>
<!DOCTYPE svg PUBLIC "-//W3C//DTD SVG 1.1//EN" "http://www.w3.org/Graphics/SVG/1.1/DTD/svg11.dtd">
<svg width="600pt" height="600pt" viewBox="0 0 600 600" version="1.1" xmlns="http://www.w3.org/2000/svg">
<g id="#f0f0f0ff">
<path fill="#f0f0f0" opacity="1.00" d=" M 435.93 61.04 C 439.27 67.03 442.43 73.13 445.94 79.01 C 451.83 82.73 458.36 85.39 464.16 89.27 C 458.04 92.39 452.09 95.83 445.99 98.97 C 442.56 104.98 439.33 111.10 435.94 117.13 C 432.56 111.13 429.21 105.12 425.99 99.03 C 420.05 95.94 414.22 92.64 408.28 89.55 L 408.12 88.88 C 413.97 85.39 420.15 82.44 426.06 79.04 C 429.19 72.95 432.69 67.06 435.93 61.04 Z" />
<path fill="#f0f0f0" opacity="1.00" d=" M 216.12 69.18 C 224.24 66.67 233.75 73.37 233.69 81.97 C 234.42 89.52 227.58 96.61 220.08 96.49 C 213.89 96.91 207.93 92.36 206.25 86.47 C 203.73 79.30 208.90 70.94 216.12 69.18 M 217.47 70.78 C 211.77 71.73 207.44 77.19 207.50 82.90 C 207.74 87.80 211.07 92.43 215.77 93.99 C 223.00 96.89 232.04 90.78 231.75 82.94 C 232.48 75.48 224.57 69.21 217.47 70.78 Z" />
<path fill="#f0f0f0" opacity="1.00" d=" M 273.15 99.11 C 278.18 98.56 283.28 97.62 288.33 97.80 C 291.10 98.86 294.07 99.10 297.01 98.94 C 302.29 98.65 307.76 99.71 312.83 97.77 C 334.74 98.53 356.51 103.43 377.16 110.82 C 378.80 111.48 380.45 112.15 382.12 112.78 C 427.24 130.50 465.93 163.70 490.74 205.31 C 509.60 236.98 520.66 273.40 521.96 310.27 C 522.42 316.47 522.57 322.78 521.92 328.96 C 521.64 343.51 519.47 357.95 516.16 372.10 C 529.73 385.47 543.24 398.89 556.80 412.27 C 559.33 414.67 561.06 417.75 562.07 421.08 C 562.58 424.00 562.58 426.98 562.05 429.91 C 560.70 434.39 557.84 438.40 553.85 440.90 C 547.01 445.36 537.19 444.46 531.33 438.74 C 522.22 429.81 513.12 420.87 504.08 411.86 C 501.75 409.18 498.62 407.40 495.16 406.66 C 490.38 406.55 485.32 408.91 483.31 413.44 C 481.44 417.34 482.39 421.91 484.41 425.56 C 486.54 429.59 489.97 432.67 493.19 435.82 C 498.75 441.29 504.31 446.77 509.86 452.26 C 512.70 455.07 514.75 458.90 514.56 462.99 C 514.97 469.40 510.31 475.58 504.15 477.24 C 499.05 478.67 493.17 477.38 489.41 473.57 C 484.25 468.60 479.26 463.44 474.08 458.49 C 464.19 471.29 452.75 482.92 440.12 493.02 C 424.08 493.59 408.01 493.08 391.97 493.26 C 316.65 493.26 241.33 493.25 166.02 493.26 C 162.63 493.54 159.39 494.91 155.95 494.76 C 139.98 494.68 124.02 494.84 108.05 494.95 C 103.70 494.89 99.21 495.67 95.02 494.15 C 96.29 493.58 97.61 493.31 99.00 493.34 C 120.12 493.39 141.25 493.34 162.38 493.37 C 151.33 485.02 141.62 475.00 132.58 464.53 C 120.12 449.74 109.40 433.42 101.14 415.92 C 98.22 409.69 95.40 403.39 93.21 396.86 C 92.72 395.63 92.29 394.40 91.78 393.20 C 89.76 386.78 87.68 380.37 86.11 373.83 C 85.19 370.62 84.71 367.31 83.85 364.10 C 82.15 354.09 80.45 344.04 80.13 333.87 C 79.33 324.67 79.33 315.30 80.13 306.10 C 80.38 297.64 81.71 289.28 82.91 280.93 C 83.36 279.28 83.57 277.58 83.81 275.90 C 84.40 274.01 84.68 272.05 85.13 270.13 C 85.43 268.79 85.70 267.45 86.09 266.14 C 87.64 259.59 89.69 253.17 91.79 246.78 C 92.25 245.55 92.66 244.31 93.17 243.10 C 93.66 241.67 94.19 240.24 94.70 238.82 C 100.11 224.93 107.02 211.68 114.87 199.02 C 102.65 187.28 90.68 175.28 78.59 163.41 C 74.64 159.73 70.78 155.45 70.00 149.89 C 69.71 148.23 69.71 146.54 69.74 144.86 C 70.78 137.69 76.00 131.20 83.12 129.37 C 89.37 127.38 96.58 129.30 101.19 133.91 C 111.58 144.15 122.01 154.35 132.36 164.63 C 135.62 167.75 138.55 171.39 142.75 173.30 C 144.85 173.68 146.96 174.11 149.10 174.28 C 150.69 173.68 152.36 173.35 154.01 172.95 C 160.24 170.39 165.65 164.93 166.84 158.14 C 167.56 154.00 166.20 149.72 163.41 146.62 C 157.43 140.22 150.80 134.41 144.90 127.95 C 141.91 123.65 145.11 117.83 149.83 116.62 C 152.15 116.53 154.59 116.93 156.28 118.67 C 162.54 124.68 168.58 130.91 174.85 136.91 C 184.67 130.04 195.05 123.97 205.85 118.77 C 210.90 116.48 215.93 114.13 221.14 112.22 C 230.81 108.32 240.85 105.46 250.95 102.95 C 258.30 101.41 265.66 99.84 273.15 99.11 M 386.21 155.09 C 381.19 157.51 379.97 165.01 384.61 168.42 C 389.27 172.79 397.29 169.02 398.01 163.02 C 398.77 157.01 391.48 152.32 386.21 155.09 M 198.46 176.66 C 196.17 182.01 189.76 183.02 185.40 186.10 C 188.25 189.73 193.42 190.15 196.58 193.40 C 199.15 196.75 200.56 200.82 203.15 204.18 C 205.97 200.81 207.06 196.34 209.91 193.02 C 213.32 190.57 217.26 189.00 220.86 186.85 C 217.74 183.44 212.85 182.54 209.40 179.53 C 207.13 176.04 205.70 172.05 203.12 168.74 C 201.40 171.28 199.89 173.95 198.46 176.66 M 315.88 182.88 C 314.14 184.19 312.11 185.06 310.22 186.13 C 311.68 188.01 314.03 188.72 315.89 190.08 C 317.18 191.83 318.10 193.82 319.21 195.68 C 320.92 194.15 321.83 192.01 323.15 190.17 C 324.87 188.80 326.92 187.91 328.82 186.82 C 327.30 185.01 325.03 184.20 323.16 182.84 C 321.83 181.13 320.90 179.15 319.78 177.30 C 318.17 178.93 317.19 181.02 315.88 182.88 M 233.10 276.99 C 231.93 277.39 230.92 278.05 230.09 278.98 C 252.27 286.64 274.62 293.80 296.89 301.18 C 298.20 301.39 298.33 302.89 298.69 303.89 C 302.73 318.90 306.80 333.90 310.83 348.90 C 308.65 344.41 306.64 339.73 303.32 335.93 C 298.62 330.25 291.57 326.02 284.01 326.38 C 275.05 326.19 267.13 332.20 262.63 339.58 C 255.59 349.94 254.39 362.89 254.35 375.08 C 254.58 387.95 256.12 401.52 263.27 412.58 C 268.39 420.07 276.80 425.46 285.94 426.09 C 295.86 424.81 305.28 418.40 309.42 409.17 C 315.23 396.72 317.01 382.64 315.63 369.05 C 315.36 366.79 315.07 364.46 313.88 362.47 C 314.01 361.92 314.27 360.81 314.40 360.25 C 315.03 361.46 315.38 362.78 315.87 364.06 C 319.41 361.14 321.81 357.17 324.83 353.76 C 330.90 346.57 336.43 338.90 342.78 331.96 C 344.55 333.34 346.32 334.73 348.10 336.12 C 341.78 347.47 335.14 358.64 328.67 369.91 C 325.30 375.90 320.76 381.78 320.80 388.99 C 320.29 395.43 323.25 403.21 330.10 404.93 C 337.45 406.61 345.10 405.56 352.58 405.68 C 352.68 409.10 352.51 412.52 352.72 415.94 C 352.88 419.56 354.98 423.14 358.21 424.85 C 363.37 426.85 370.55 425.79 373.30 420.48 C 376.15 416.12 374.63 410.72 375.00 405.86 C 381.00 404.79 384.43 398.62 384.76 392.96 C 384.65 387.34 380.52 382.25 374.99 381.12 C 375.01 372.76 374.99 364.41 375.00 356.06 C 381.74 361.29 388.71 366.21 395.47 371.42 C 397.24 372.70 398.93 374.31 401.19 374.67 C 413.58 318.76 426.03 262.85 438.41 206.93 C 438.57 205.39 439.68 202.74 437.15 202.79 C 369.13 227.50 301.19 252.48 233.10 276.99 M 238.89 221.96 C 236.21 223.57 234.64 226.36 233.07 228.96 C 231.21 229.05 229.27 228.75 227.47 229.32 C 224.46 230.68 222.68 233.61 221.44 236.52 C 219.56 237.52 217.26 238.20 216.12 240.15 C 214.73 243.85 216.42 248.70 220.02 250.45 C 231.00 250.89 242.02 250.43 253.02 250.63 C 256.17 250.56 259.61 251.05 262.45 249.33 C 267.04 246.94 269.14 241.11 267.94 236.22 C 266.72 232.17 262.88 229.83 259.11 228.52 C 256.78 227.78 256.05 225.19 254.41 223.62 C 250.34 219.79 243.67 219.10 238.89 221.96 M 154.80 271.80 C 153.40 272.84 151.80 273.57 150.36 274.56 C 150.03 276.09 152.18 276.22 153.05 277.03 C 155.83 278.27 156.70 281.46 158.40 283.75 C 160.10 279.75 163.32 276.93 167.13 274.99 C 163.26 273.09 159.99 270.25 158.36 266.17 C 157.16 268.04 156.15 270.03 154.80 271.80 M 449.36 270.45 C 444.24 272.74 443.32 280.88 448.43 283.68 C 453.17 287.17 460.85 282.91 460.03 276.94 C 460.39 271.41 453.94 268.58 449.36 270.45 M 134.54 315.46 C 130.60 319.82 129.80 325.88 129.29 331.50 C 127.16 333.55 124.35 335.70 124.62 339.02 C 124.11 343.49 127.13 347.17 130.12 350.09 C 148.10 350.18 166.08 350.03 184.05 350.15 C 185.78 350.02 187.83 350.46 189.15 349.03 C 192.73 346.25 192.63 341.21 191.94 337.17 C 190.70 332.58 186.45 329.60 181.96 328.68 C 179.39 328.36 178.36 325.75 176.63 324.20 C 173.78 321.14 168.99 320.94 166.43 317.54 C 163.79 314.48 160.79 311.43 156.84 310.17 C 149.29 307.30 139.78 309.09 134.54 315.46 M 457.58 315.55 C 454.58 316.75 453.01 319.72 451.33 322.27 C 449.88 322.02 448.42 321.70 446.96 321.68 C 444.74 321.62 443.51 323.66 442.03 324.96 C 439.86 327.30 436.12 327.84 434.69 330.92 C 431.79 336.04 434.13 345.24 440.99 345.15 C 452.65 345.07 464.34 345.42 475.99 344.98 C 482.78 342.89 482.25 332.68 476.37 329.64 C 475.98 325.20 475.43 320.24 472.02 316.99 C 468.18 313.37 462.12 313.17 457.58 315.55 M 213.76 334.90 C 205.36 349.50 196.98 364.11 188.47 378.63 C 185.18 384.60 184.46 392.19 187.36 398.45 C 189.30 402.63 193.62 405.28 198.17 405.59 C 204.55 406.09 210.97 405.75 217.36 405.67 C 217.56 410.71 216.60 416.19 219.07 420.83 C 222.91 427.97 234.82 427.23 238.42 420.21 C 241.08 415.86 239.87 410.56 240.27 405.75 C 248.43 403.78 252.50 392.62 247.31 385.93 C 245.86 383.30 243.07 382.07 240.32 381.29 C 239.95 368.21 240.29 355.13 240.16 342.06 C 240.07 335.63 236.24 328.95 229.96 326.82 C 223.40 325.04 217.04 329.50 213.76 334.90 Z" />
<path fill="#f0f0f0" opacity="1.00" d=" M 387.38 157.51 C 390.46 155.69 395.28 158.19 395.03 161.95 C 395.61 165.94 390.49 169.06 387.16 166.88 C 383.47 165.05 383.74 159.28 387.38 157.51 Z" />
<path fill="#f0f0f0" opacity="1.00" d=" M 198.16 182.02 C 200.33 179.66 201.35 176.51 203.19 173.91 C 204.79 176.59 205.95 179.58 207.97 181.99 C 210.43 183.81 213.30 184.96 215.91 186.55 C 213.24 188.04 210.35 189.20 207.90 191.05 C 205.93 193.49 204.72 196.45 203.03 199.08 C 201.58 196.52 200.42 193.76 198.61 191.41 C 196.18 189.25 193.03 188.15 190.22 186.56 C 192.81 184.94 195.70 183.83 198.16 182.02 Z" />
<path fill="#f0f0f0" opacity="1.00" d=" M 424.82 214.59 C 425.03 214.55 425.45 214.48 425.66 214.44 C 422.39 216.87 419.55 219.79 416.63 222.62 C 385.60 253.57 353.94 283.89 323.06 315.00 C 322.84 315.30 322.40 315.90 322.18 316.19 C 319.96 329.48 317.76 342.79 315.54 356.08 C 310.37 337.88 305.75 319.53 300.65 301.31 C 341.98 272.32 383.54 243.65 424.82 214.59 Z" />
<path fill="#f0f0f0" opacity="1.00" d=" M 450.26 272.25 C 452.98 270.66 456.79 272.40 457.84 275.29 C 459.96 279.29 455.22 284.34 451.08 282.93 C 448.25 282.08 446.18 278.96 446.82 276.02 C 447.52 274.44 448.80 273.17 450.26 272.25 Z" />
<path fill="#f0f0f0" opacity="1.00" d=" M 283.60 351.70 C 286.78 350.58 289.24 353.84 290.25 356.44 C 291.67 360.80 292.50 365.37 292.96 369.93 C 293.00 378.25 293.42 386.69 291.57 394.87 C 290.79 398.00 289.10 401.41 285.90 402.63 C 282.31 402.60 279.88 399.29 279.19 396.06 C 275.93 383.75 275.19 370.55 278.55 358.17 C 279.27 355.47 281.04 352.93 283.60 351.70 Z" />
<path fill="#f0f0f0" opacity="1.00" d=" M 217.59 369.26 C 217.35 373.07 217.35 376.89 217.47 380.71 C 215.80 380.74 214.12 380.78 212.46 380.85 C 214.11 376.95 215.94 373.15 217.59 369.26 Z" />
<path fill="#f0f0f0" opacity="1.00" d=" M 347.80 380.86 C 348.97 377.03 350.75 373.45 352.64 369.94 C 352.71 373.54 352.65 377.15 352.65 380.75 C 351.03 380.78 349.41 380.82 347.80 380.86 Z" />
<path fill="#f0f0f0" opacity="1.00" d=" M 483.38 493.46 C 491.25 493.24 499.14 493.41 507.03 493.37 C 509.52 493.16 512.01 495.41 511.81 497.97 C 512.10 500.63 509.62 502.99 507.01 502.79 C 499.16 502.78 491.30 503.02 483.47 502.67 C 478.67 501.90 478.61 494.25 483.38 493.46 Z" />
<path fill="#f0f0f0" opacity="1.00" d=" M 174.03 515.15 C 175.94 514.40 178.01 514.58 180.01 514.56 C 197.22 514.67 214.43 514.43 231.63 514.67 C 226.46 515.73 221.17 515.30 215.93 515.40 C 206.28 515.51 196.62 515.53 186.96 515.75 C 182.65 515.84 178.25 516.37 174.03 515.15 Z" />
<path fill="#f0f0f0" opacity="1.00" d=" M 427.46 514.67 C 441.95 514.62 456.48 514.28 470.95 514.85 C 466.61 517.02 461.65 515.41 457.03 515.65 C 447.18 515.12 437.23 516.13 427.46 514.67 Z" />
<path fill="#f0f0f0" opacity="1.00" d=" M 285.32 537.44 L 286.70 536.53 C 305.85 536.74 324.99 537.44 344.15 537.49 C 330.10 537.91 316.04 537.55 301.99 537.78 C 296.44 537.82 290.82 538.50 285.32 537.44 Z" />
<path fill="#f0f0f0" opacity="1.00" d=" M 422.93 537.55 C 442.04 537.39 461.15 536.70 480.27 536.51 L 481.70 537.37 C 477.83 538.24 473.86 538.09 469.94 537.92 C 454.28 537.38 438.60 537.94 422.93 537.55 Z" />
</g>
<g id="#ffffffff">
<path fill="#ffffff" opacity="1.00" d=" M 288.33 97.80 C 296.48 97.25 304.68 97.23 312.83 97.77 C 307.76 99.71 302.29 98.65 297.01 98.94 C 294.07 99.10 291.10 98.86 288.33 97.80 Z" />
<path fill="#ffffff" opacity="1.00" d=" M 325.69 316.12 C 361.98 279.50 399.39 244.02 435.70 207.43 C 423.39 261.96 411.50 316.59 399.24 371.13 C 374.80 352.69 350.11 334.58 325.69 316.12 Z" />
<path fill="#ffffff" opacity="1.00" d=" M 236.72 278.49 C 301.05 254.99 365.44 231.66 429.79 208.25 C 412.99 219.45 396.62 231.28 380.00 242.74 C 355.19 260.04 330.32 277.27 305.56 294.65 C 303.37 296.12 301.31 297.80 298.96 299.02 C 278.12 292.51 257.43 285.43 236.72 278.49 Z" />
<path fill="#ffffff" opacity="1.00" d=" M 240.74 223.90 C 245.32 221.74 251.82 222.90 254.26 227.68 C 256.31 232.01 262.58 231.01 264.74 235.31 C 267.18 240.17 264.14 248.20 258.02 248.00 C 245.39 247.97 232.76 248.06 220.14 247.94 C 219.13 245.93 217.43 243.72 218.36 241.36 C 219.44 239.75 221.52 239.57 223.19 238.92 C 224.62 236.31 225.50 232.91 228.52 231.68 C 230.41 231.12 232.42 231.77 234.34 231.88 C 236.36 229.15 237.44 225.42 240.74 223.90 Z" />
<path fill="#ffffff" opacity="1.00" d=" M 154.80 271.80 C 156.15 270.03 157.16 268.04 158.36 266.17 C 159.99 270.25 163.26 273.09 167.13 274.99 C 163.32 276.93 160.10 279.75 158.40 283.75 C 156.70 281.46 155.83 278.27 153.05 277.03 C 152.18 276.22 150.03 276.09 150.36 274.56 C 151.80 273.57 153.40 272.84 154.80 271.80 Z" />
<path fill="#ffffff" opacity="1.00" d=" M 449.36 270.45 C 453.94 268.58 460.39 271.41 460.03 276.94 C 460.85 282.91 453.17 287.17 448.43 283.68 C 443.32 280.88 444.24 272.74 449.36 270.45 M 450.26 272.25 C 448.80 273.17 447.52 274.44 446.82 276.02 C 446.18 278.96 448.25 282.08 451.08 282.93 C 455.22 284.34 459.96 279.29 457.84 275.29 C 456.79 272.40 452.98 270.66 450.26 272.25 Z" />
<path fill="#ffffff" opacity="1.00" d=" M 138.24 315.24 C 145.85 308.87 158.46 310.65 164.19 318.74 C 166.52 323.20 172.35 322.92 175.50 326.50 C 177.14 328.32 178.19 331.07 181.04 331.17 C 185.48 331.77 189.83 335.11 189.85 339.91 C 190.09 342.97 189.20 348.06 185.12 347.70 C 167.10 347.70 149.08 347.77 131.06 347.66 C 129.01 345.17 126.54 342.43 127.06 338.92 C 127.18 336.01 129.96 334.41 131.95 332.75 C 131.77 326.44 133.31 319.57 138.24 315.24 Z" />
<path fill="#ffffff" opacity="1.00" d=" M 458.67 317.75 C 462.28 316.16 467.15 315.79 470.19 318.73 C 473.35 321.93 473.54 326.72 474.07 330.93 C 475.79 332.71 478.50 334.24 478.42 337.05 C 478.58 339.31 477.57 342.47 474.85 342.48 C 463.89 342.58 452.91 342.44 441.94 342.54 C 434.89 343.44 434.04 331.40 440.08 329.51 C 442.61 328.84 443.90 326.56 445.62 324.84 C 447.83 322.53 451.14 326.43 453.26 324.22 C 454.91 321.95 455.89 318.93 458.67 317.75 Z" />
<path fill="#ffffff" opacity="1.00" d=" M 324.32 318.74 C 329.95 322.16 334.91 326.54 340.26 330.36 C 333.26 339.91 325.45 348.84 318.08 358.10 C 319.62 344.91 322.53 331.91 324.32 318.74 Z" />
<path fill="#ffffff" opacity="1.00" d=" M 215.69 336.67 C 217.87 332.92 221.45 329.63 225.89 329.02 C 230.36 328.55 234.35 331.79 235.99 335.76 C 238.24 340.18 237.42 345.25 237.54 350.02 C 237.62 361.02 237.39 372.03 237.66 383.04 C 240.41 384.06 243.76 384.66 245.30 387.49 C 248.48 391.87 246.89 398.29 243.02 401.71 C 241.42 402.79 239.45 403.10 237.64 403.71 C 237.04 409.32 238.93 415.70 235.21 420.56 C 232.79 423.49 228.50 423.53 225.07 422.86 C 222.09 422.10 220.63 418.92 220.13 416.16 C 219.76 411.86 220.29 407.53 219.77 403.24 C 213.21 402.95 206.65 403.30 200.09 403.08 C 196.43 402.99 192.36 401.92 190.37 398.55 C 186.82 392.58 187.77 384.87 191.16 379.05 C 199.43 364.98 207.54 350.82 215.69 336.67 M 215.56 367.83 C 213.73 372.22 211.13 376.33 209.90 380.94 C 211.39 384.93 216.65 383.17 219.94 383.35 C 220.01 375.72 220.11 368.08 219.89 360.45 C 217.44 362.19 216.87 365.31 215.56 367.83 Z" />
<path fill="#ffffff" opacity="1.00" d=" M 278.50 329.76 C 284.98 327.78 292.37 329.33 297.52 333.74 C 305.06 339.91 308.73 349.37 311.16 358.52 C 315.25 375.12 314.26 393.29 306.80 408.82 C 303.69 415.46 297.44 420.13 290.62 422.47 C 284.67 425.19 278.12 422.07 273.02 418.89 C 262.63 411.88 259.22 398.83 257.65 387.11 C 256.42 372.44 256.13 356.60 263.34 343.28 C 266.58 337.18 271.70 331.75 278.50 329.76 M 282.29 349.38 C 276.37 352.50 275.35 359.68 274.45 365.63 C 273.19 375.64 273.95 385.89 276.42 395.68 C 277.27 399.01 278.81 402.50 281.98 404.22 C 284.75 405.92 288.53 405.10 290.46 402.51 C 295.18 396.84 295.14 388.97 295.37 381.98 C 296.11 373.21 295.44 364.19 292.70 355.79 C 291.31 351.68 286.91 347.29 282.29 349.38 Z" />
<path fill="#ffffff" opacity="1.00" d=" M 326.58 378.42 C 334.52 364.93 342.23 351.30 350.13 337.79 C 357.90 342.93 365.13 348.86 372.65 354.35 C 372.76 363.95 372.56 373.55 372.75 383.14 C 375.11 384.03 377.95 384.39 379.60 386.52 C 383.19 390.35 382.46 396.61 379.32 400.50 C 377.91 402.76 375.02 402.89 372.73 403.64 C 372.20 409.06 374.00 415.12 370.71 419.94 C 368.74 423.22 364.36 423.50 360.95 423.02 C 357.52 422.63 355.64 419.14 355.11 416.06 C 354.84 411.85 355.12 407.63 355.02 403.41 C 348.34 402.79 341.63 403.38 334.94 403.10 C 331.38 402.89 327.44 401.80 325.46 398.58 C 321.73 392.39 322.97 384.39 326.58 378.42 M 347.26 375.26 C 346.47 377.70 343.66 380.54 346.05 382.89 C 348.93 383.89 352.02 383.46 355.00 383.37 C 354.98 375.60 355.16 367.82 354.91 360.04 C 351.36 364.51 349.88 370.23 347.26 375.26 Z" />
<path fill="#ffffff" opacity="1.00" d=" M 364.08 521.12 C 366.70 522.01 369.15 523.72 372.02 523.64 C 376.83 523.69 381.66 523.54 386.45 524.19 C 380.22 524.36 373.98 524.14 367.74 524.31 C 366.26 523.56 364.74 522.73 364.08 521.12 Z" />
<path fill="#ffffff" opacity="1.00" d=" M 230.85 537.47 C 244.61 537.19 258.39 537.47 272.12 536.51 C 275.94 538.40 275.63 545.36 270.96 545.60 C 247.76 545.66 224.55 545.72 201.35 545.57 C 203.21 545.15 205.09 544.75 207.01 544.73 C 227.32 544.69 247.64 544.49 267.96 544.17 C 270.07 544.36 271.92 543.46 273.47 542.10 C 272.75 540.33 272.74 537.15 270.01 537.77 C 256.96 537.47 243.90 538.01 230.85 537.47 Z" />
<path fill="#ffffff" opacity="1.00" d=" M 290.02 544.12 C 351.69 543.23 413.38 543.28 475.06 544.06 C 477.07 544.02 479.10 544.34 480.84 545.41 C 466.59 545.95 452.30 545.50 438.03 545.65 C 402.01 545.65 365.99 545.65 329.96 545.65 C 315.38 545.48 300.78 545.99 286.22 545.39 C 287.43 544.84 288.66 544.18 290.02 544.12 Z" />
</g>
<g id="#cbcbcbff">
<path fill="#cbcbcb" opacity="1.00" d=" M 386.21 155.09 C 391.48 152.32 398.77 157.01 398.01 163.02 C 397.29 169.02 389.27 172.79 384.61 168.42 C 379.97 165.01 381.19 157.51 386.21 155.09 M 387.38 157.51 C 383.74 159.28 383.47 165.05 387.16 166.88 C 390.49 169.06 395.61 165.94 395.03 161.95 C 395.28 158.19 390.46 155.69 387.38 157.51 Z" />
<path fill="#cbcbcb" opacity="1.00" d=" M 198.46 176.66 C 199.89 173.95 201.40 171.28 203.12 168.74 C 205.70 172.05 207.13 176.04 209.40 179.53 C 212.85 182.54 217.74 183.44 220.86 186.85 C 217.26 189.00 213.32 190.57 209.91 193.02 C 207.06 196.34 205.97 200.81 203.15 204.18 C 200.56 200.82 199.15 196.75 196.58 193.40 C 193.42 190.15 188.25 189.73 185.40 186.10 C 189.76 183.02 196.17 182.01 198.46 176.66 M 198.16 182.02 C 195.70 183.83 192.81 184.94 190.22 186.56 C 193.03 188.15 196.18 189.25 198.61 191.41 C 200.42 193.76 201.58 196.52 203.03 199.08 C 204.72 196.45 205.93 193.49 207.90 191.05 C 210.35 189.20 213.24 188.04 215.91 186.55 C 213.30 184.96 210.43 183.81 207.97 181.99 C 205.95 179.58 204.79 176.59 203.19 173.91 C 201.35 176.51 200.33 179.66 198.16 182.02 Z" />
<path fill="#cbcbcb" opacity="1.00" d=" M 315.88 182.88 C 317.19 181.02 318.17 178.93 319.78 177.30 C 320.90 179.15 321.83 181.13 323.16 182.84 C 325.03 184.20 327.30 185.01 328.82 186.82 C 326.92 187.91 324.87 188.80 323.15 190.17 C 321.83 192.01 320.92 194.15 319.21 195.68 C 318.10 193.82 317.18 191.83 315.89 190.08 C 314.03 188.72 311.68 188.01 310.22 186.13 C 312.11 185.06 314.14 184.19 315.88 182.88 Z" />
<path fill="#cbcbcb" opacity="1.00" d=" M 233.10 276.99 C 301.19 252.48 369.13 227.50 437.15 202.79 C 439.68 202.74 438.57 205.39 438.41 206.93 C 426.03 262.85 413.58 318.76 401.19 374.67 C 398.93 374.31 397.24 372.70 395.47 371.42 C 388.71 366.21 381.74 361.29 375.00 356.06 C 374.99 364.41 375.01 372.76 374.99 381.12 C 380.52 382.25 384.65 387.34 384.76 392.96 C 384.43 398.62 381.00 404.79 375.00 405.86 C 374.63 410.72 376.15 416.12 373.30 420.48 C 370.55 425.79 363.37 426.85 358.21 424.85 C 354.98 423.14 352.88 419.56 352.72 415.94 C 352.51 412.52 352.68 409.10 352.58 405.68 C 345.10 405.56 337.45 406.61 330.10 404.93 C 323.25 403.21 320.29 395.43 320.80 388.99 C 320.76 381.78 325.30 375.90 328.67 369.91 C 335.14 358.64 341.78 347.47 348.10 336.12 C 346.32 334.73 344.55 333.34 342.78 331.96 C 336.43 338.90 330.90 346.57 324.83 353.76 C 321.81 357.17 319.41 361.14 315.87 364.06 C 315.38 362.78 315.03 361.46 314.40 360.25 C 314.27 360.81 314.01 361.92 313.88 362.47 C 315.07 364.46 315.36 366.79 315.63 369.05 C 317.01 382.64 315.23 396.72 309.42 409.17 C 305.28 418.40 295.86 424.81 285.94 426.09 C 276.80 425.46 268.39 420.07 263.27 412.58 C 256.12 401.52 254.58 387.95 254.35 375.08 C 254.39 362.89 255.59 349.94 262.63 339.58 C 267.13 332.20 275.05 326.19 284.01 326.38 C 291.57 326.02 298.62 330.25 303.32 335.93 C 306.64 339.73 308.65 344.41 310.83 348.90 C 306.80 333.90 302.73 318.90 298.69 303.89 C 298.33 302.89 298.20 301.39 296.89 301.18 C 274.62 293.80 252.27 286.64 230.09 278.98 C 230.92 278.05 231.93 277.39 233.10 276.99 M 325.69 316.12 C 350.11 334.58 374.80 352.69 399.24 371.13 C 411.50 316.59 423.39 261.96 435.70 207.43 C 399.39 244.02 361.98 279.50 325.69 316.12 M 236.72 278.49 C 257.43 285.43 278.12 292.51 298.96 299.02 C 301.31 297.80 303.37 296.12 305.56 294.65 C 330.32 277.27 355.19 260.04 380.00 242.74 C 396.62 231.28 412.99 219.45 429.79 208.25 C 365.44 231.66 301.05 254.99 236.72 278.49 M 424.82 214.59 C 383.54 243.65 341.98 272.32 300.65 301.31 C 305.75 319.53 310.37 337.88 315.54 356.08 C 317.76 342.79 319.96 329.48 322.18 316.19 C 322.40 315.90 322.84 315.30 323.06 315.00 C 353.94 283.89 385.60 253.57 416.63 222.62 C 419.55 219.79 422.39 216.87 425.66 214.44 C 425.45 214.48 425.03 214.55 424.82 214.59 M 324.32 318.74 C 322.53 331.91 319.62 344.91 318.08 358.10 C 325.45 348.84 333.26 339.91 340.26 330.36 C 334.91 326.54 329.95 322.16 324.32 318.74 M 278.50 329.76 C 271.70 331.75 266.58 337.18 263.34 343.28 C 256.13 356.60 256.42 372.44 257.65 387.11 C 259.22 398.83 262.63 411.88 273.02 418.89 C 278.12 422.07 284.67 425.19 290.62 422.47 C 297.44 420.13 303.69 415.46 306.80 408.82 C 314.26 393.29 315.25 375.12 311.16 358.52 C 308.73 349.37 305.06 339.91 297.52 333.74 C 292.37 329.33 284.98 327.78 278.50 329.76 M 326.58 378.42 C 322.97 384.39 321.73 392.39 325.46 398.58 C 327.44 401.80 331.38 402.89 334.94 403.10 C 341.63 403.38 348.34 402.79 355.02 403.41 C 355.12 407.63 354.84 411.85 355.11 416.06 C 355.64 419.14 357.52 422.63 360.95 423.02 C 364.36 423.50 368.74 423.22 370.71 419.94 C 374.00 415.12 372.20 409.06 372.73 403.64 C 375.02 402.89 377.91 402.76 379.32 400.50 C 382.46 396.61 383.19 390.35 379.60 386.52 C 377.95 384.39 375.11 384.03 372.75 383.14 C 372.56 373.55 372.76 363.95 372.65 354.35 C 365.13 348.86 357.90 342.93 350.13 337.79 C 342.23 351.30 334.52 364.93 326.58 378.42 Z" />
<path fill="#cbcbcb" opacity="1.00" d=" M 238.89 221.96 C 243.67 219.10 250.34 219.79 254.41 223.62 C 256.05 225.19 256.78 227.78 259.11 228.52 C 262.88 229.83 266.72 232.17 267.94 236.22 C 269.14 241.11 267.04 246.94 262.45 249.33 C 259.61 251.05 256.17 250.56 253.02 250.63 C 242.02 250.43 231.00 250.89 220.02 250.45 C 216.42 248.70 214.73 243.85 216.12 240.15 C 217.26 238.20 219.56 237.52 221.44 236.52 C 222.68 233.61 224.46 230.68 227.47 229.32 C 229.27 228.75 231.21 229.05 233.07 228.96 C 234.64 226.36 236.21 223.57 238.89 221.96 M 240.74 223.90 C 237.44 225.42 236.36 229.15 234.34 231.88 C 232.42 231.77 230.41 231.12 228.52 231.68 C 225.50 232.91 224.62 236.31 223.19 238.92 C 221.52 239.57 219.44 239.75 218.36 241.36 C 217.43 243.72 219.13 245.93 220.14 247.94 C 232.76 248.06 245.39 247.97 258.02 248.00 C 264.14 248.20 267.18 240.17 264.74 235.31 C 262.58 231.01 256.31 232.01 254.26 227.68 C 251.82 222.90 245.32 221.74 240.74 223.90 Z" />
<path fill="#cbcbcb" opacity="1.00" d=" M 134.54 315.46 C 139.78 309.09 149.29 307.30 156.84 310.17 C 160.79 311.43 163.79 314.48 166.43 317.54 C 168.99 320.94 173.78 321.14 176.63 324.20 C 178.36 325.75 179.39 328.36 181.96 328.68 C 186.45 329.60 190.70 332.58 191.94 337.17 C 192.63 341.21 192.73 346.25 189.15 349.03 C 187.83 350.46 185.78 350.02 184.05 350.15 C 166.08 350.03 148.10 350.18 130.12 350.09 C 127.13 347.17 124.11 343.49 124.62 339.02 C 124.35 335.70 127.16 333.55 129.29 331.50 C 129.80 325.88 130.60 319.82 134.54 315.46 M 138.24 315.24 C 133.31 319.57 131.77 326.44 131.95 332.75 C 129.96 334.41 127.18 336.01 127.06 338.92 C 126.54 342.43 129.01 345.17 131.06 347.66 C 149.08 347.77 167.10 347.70 185.12 347.70 C 189.20 348.06 190.09 342.97 189.85 339.91 C 189.83 335.11 185.48 331.77 181.04 331.17 C 178.19 331.07 177.14 328.32 175.50 326.50 C 172.35 322.92 166.52 323.20 164.19 318.74 C 158.46 310.65 145.85 308.87 138.24 315.24 Z" />
<path fill="#cbcbcb" opacity="1.00" d=" M 457.58 315.55 C 462.12 313.17 468.18 313.37 472.02 316.99 C 475.43 320.24 475.98 325.20 476.37 329.64 C 482.25 332.68 482.78 342.89 475.99 344.98 C 464.34 345.42 452.65 345.07 440.99 345.15 C 434.13 345.24 431.79 336.04 434.69 330.92 C 436.12 327.84 439.86 327.30 442.03 324.96 C 443.51 323.66 444.74 321.62 446.96 321.68 C 448.42 321.70 449.88 322.02 451.33 322.27 C 453.01 319.72 454.58 316.75 457.58 315.55 M 458.67 317.75 C 455.89 318.93 454.91 321.95 453.26 324.22 C 451.14 326.43 447.83 322.53 445.62 324.84 C 443.90 326.56 442.61 328.84 440.08 329.51 C 434.04 331.40 434.89 343.44 441.94 342.54 C 452.91 342.44 463.89 342.58 474.85 342.48 C 477.57 342.47 478.58 339.31 478.42 337.05 C 478.50 334.24 475.79 332.71 474.07 330.93 C 473.54 326.72 473.35 321.93 470.19 318.73 C 467.15 315.79 462.28 316.16 458.67 317.75 Z" />
<path fill="#cbcbcb" opacity="1.00" d=" M 213.76 334.90 C 217.04 329.50 223.40 325.04 229.96 326.82 C 236.24 328.95 240.07 335.63 240.16 342.06 C 240.29 355.13 239.95 368.21 240.32 381.29 C 243.07 382.07 245.86 383.30 247.31 385.93 C 252.50 392.62 248.43 403.78 240.27 405.75 C 239.87 410.56 241.08 415.86 238.42 420.21 C 234.82 427.23 222.91 427.97 219.07 420.83 C 216.60 416.19 217.56 410.71 217.36 405.67 C 210.97 405.75 204.55 406.09 198.17 405.59 C 193.62 405.28 189.30 402.63 187.36 398.45 C 184.46 392.19 185.18 384.60 188.47 378.63 C 196.98 364.11 205.36 349.50 213.76 334.90 M 215.69 336.67 C 207.54 350.82 199.43 364.98 191.16 379.05 C 187.77 384.87 186.82 392.58 190.37 398.55 C 192.36 401.92 196.43 402.99 200.09 403.08 C 206.65 403.30 213.21 402.95 219.77 403.24 C 220.29 407.53 219.76 411.86 220.13 416.16 C 220.63 418.92 222.09 422.10 225.07 422.86 C 228.50 423.53 232.79 423.49 235.21 420.56 C 238.93 415.70 237.04 409.32 237.64 403.71 C 239.45 403.10 241.42 402.79 243.02 401.71 C 246.89 398.29 248.48 391.87 245.30 387.49 C 243.76 384.66 240.41 384.06 237.66 383.04 C 237.39 372.03 237.62 361.02 237.54 350.02 C 237.42 345.25 238.24 340.18 235.99 335.76 C 234.35 331.79 230.36 328.55 225.89 329.02 C 221.45 329.63 217.87 332.92 215.69 336.67 Z" />
<path fill="#cbcbcb" opacity="1.00" d=" M 282.29 349.38 C 286.91 347.29 291.31 351.68 292.70 355.79 C 295.44 364.19 296.11 373.21 295.37 381.98 C 295.14 388.97 295.18 396.84 290.46 402.51 C 288.53 405.10 284.75 405.92 281.98 404.22 C 278.81 402.50 277.27 399.01 276.42 395.68 C 273.95 385.89 273.19 375.64 274.45 365.63 C 275.35 359.68 276.37 352.50 282.29 349.38 M 283.60 351.70 C 281.04 352.93 279.27 355.47 278.55 358.17 C 275.19 370.55 275.93 383.75 279.19 396.06 C 279.88 399.29 282.31 402.60 285.90 402.63 C 289.10 401.41 290.79 398.00 291.57 394.87 C 293.42 386.69 293.00 378.25 292.96 369.93 C 292.50 365.37 291.67 360.80 290.25 356.44 C 289.24 353.84 286.78 350.58 283.60 351.70 Z" />
<path fill="#cbcbcb" opacity="1.00" d=" M 215.56 367.83 C 216.87 365.31 217.44 362.19 219.89 360.45 C 220.11 368.08 220.01 375.72 219.94 383.35 C 216.65 383.17 211.39 384.93 209.90 380.94 C 211.13 376.33 213.73 372.22 215.56 367.83 M 217.59 369.26 C 215.94 373.15 214.11 376.95 212.46 380.85 C 214.12 380.78 215.80 380.74 217.47 380.71 C 217.35 376.89 217.35 373.07 217.59 369.26 Z" />
<path fill="#cbcbcb" opacity="1.00" d=" M 347.26 375.26 C 349.88 370.23 351.36 364.51 354.91 360.04 C 355.16 367.82 354.98 375.60 355.00 383.37 C 352.02 383.46 348.93 383.89 346.05 382.89 C 343.66 380.54 346.47 377.70 347.26 375.26 M 347.80 380.86 C 349.41 380.82 351.03 380.78 352.65 380.75 C 352.65 377.15 352.71 373.54 352.64 369.94 C 350.75 373.45 348.97 377.03 347.80 380.86 Z" />
<path fill="#cbcbcb" opacity="1.00" d=" M 391.97 493.26 C 408.01 493.08 424.08 493.59 440.12 493.02 C 446.70 493.68 453.35 493.05 459.96 493.31 C 463.27 493.48 465.63 497.91 463.44 500.61 C 462.30 502.46 460.10 503.14 458.03 502.94 C 338.02 502.88 218.00 502.99 97.99 502.89 C 93.44 503.07 91.57 496.82 95.02 494.15 C 99.21 495.67 103.70 494.89 108.05 494.95 C 124.02 494.84 139.98 494.68 155.95 494.76 C 159.39 494.91 162.63 493.54 166.02 493.26 C 241.33 493.25 316.65 493.26 391.97 493.26 Z" />
<path fill="#cbcbcb" opacity="1.00" d=" M 363.70 520.97 C 362.94 517.77 365.44 513.97 368.95 514.51 C 388.45 514.65 407.97 514.31 427.46 514.67 C 437.23 516.13 447.18 515.12 457.03 515.65 C 461.65 515.41 466.61 517.02 470.95 514.85 C 475.01 517.16 473.89 523.98 469.07 524.26 C 441.54 524.26 413.99 524.41 386.45 524.19 C 381.66 523.54 376.83 523.69 372.02 523.64 C 369.15 523.72 366.70 522.01 364.08 521.12 L 363.70 520.97 Z" />
<path fill="#cbcbcb" opacity="1.00" d=" M 172.02 520.95 C 170.97 518.81 172.43 516.53 174.03 515.15 C 178.25 516.37 182.65 515.84 186.96 515.75 C 196.62 515.53 206.28 515.51 215.93 515.40 C 221.17 515.30 226.46 515.73 231.63 514.67 C 258.73 514.31 285.86 514.65 312.97 514.50 C 314.82 514.27 316.51 515.00 318.08 515.90 C 320.26 519.04 318.81 522.91 315.42 524.36 C 268.84 524.24 222.24 524.25 175.66 524.36 C 174.20 523.52 172.56 522.66 172.02 520.95 Z" />
<path fill="#cbcbcb" opacity="1.00" d=" M 331.74 520.18 C 331.38 517.28 333.90 514.14 336.94 514.53 C 340.59 514.75 345.79 513.23 347.76 517.37 C 349.26 520.31 346.99 523.19 344.34 524.34 C 341.42 524.26 338.50 524.26 335.58 524.34 C 333.93 523.35 332.23 522.17 331.74 520.18 Z" />
<path fill="#cbcbcb" opacity="1.00" d=" M 93.60 536.57 C 98.04 535.94 102.56 536.45 107.03 536.30 C 162.06 536.43 217.10 536.02 272.12 536.51 C 258.39 537.47 244.61 537.19 230.85 537.47 C 243.90 538.01 256.96 537.47 270.01 537.77 C 272.74 537.15 272.75 540.33 273.47 542.10 C 271.92 543.46 270.07 544.36 267.96 544.17 C 247.64 544.49 227.32 544.69 207.01 544.73 C 205.09 544.75 203.21 545.15 201.35 545.57 C 165.95 546.00 130.48 545.67 95.06 545.73 C 89.96 545.90 88.90 538.16 93.60 536.57 Z" />
<path fill="#cbcbcb" opacity="1.00" d=" M 286.70 536.53 C 329.13 536.00 371.58 536.43 414.02 536.30 C 436.10 536.39 458.19 536.09 480.27 536.51 C 461.15 536.70 442.04 537.39 422.93 537.55 C 438.60 537.94 454.28 537.38 469.94 537.92 C 473.86 538.09 477.83 538.24 481.70 537.37 L 482.06 537.30 C 484.18 539.88 483.90 543.59 481.10 545.54 L 480.84 545.41 C 479.10 544.34 477.07 544.02 475.06 544.06 C 413.38 543.28 351.69 543.23 290.02 544.12 C 288.66 544.18 287.43 544.84 286.22 545.39 L 285.95 545.51 C 283.24 543.60 282.56 539.80 285.03 537.39 L 285.32 537.44 C 290.82 538.50 296.44 537.82 301.99 537.78 C 316.04 537.55 330.10 537.91 344.15 537.49 C 324.99 537.44 305.85 536.74 286.70 536.53 Z" />
</g>
</svg>
