<?xml version="1.0" encoding="UTF-8" ?>
<!DOCTYPE svg PUBLIC "-//W3C//DTD SVG 1.1//EN" "http://www.w3.org/Graphics/SVG/1.1/DTD/svg11.dtd">
<svg width="600pt" height="600pt" viewBox="0 0 600 600" version="1.1" xmlns="http://www.w3.org/2000/svg">
<g id="#cacacaff">
<path fill="#cacaca" opacity="1.00" d=" M 336.34 52.79 C 336.54 58.20 341.07 62.46 346.24 63.33 C 341.17 63.96 336.61 68.08 336.42 73.37 C 335.29 68.26 331.31 63.83 325.91 63.30 C 331.34 62.64 335.55 58.12 336.34 52.79 Z" />
<path fill="#cacaca" opacity="1.00" d=" M 524.56 123.00 C 525.80 129.75 528.60 136.62 534.40 140.70 C 538.31 143.01 542.87 143.87 547.08 145.50 C 539.39 145.79 531.22 149.58 528.08 157.00 C 526.02 159.76 526.45 163.66 524.08 166.17 C 524.87 159.12 519.98 153.29 514.82 149.20 C 511.45 146.67 507.21 146.00 503.15 145.45 C 507.31 143.82 511.82 142.90 515.62 140.47 C 518.04 138.26 520.25 135.77 522.01 133.00 C 523.92 130.03 524.08 126.40 524.56 123.00 Z" />
<path fill="#cacaca" opacity="1.00" d=" M 542.25 161.83 C 543.80 164.31 544.33 167.48 546.76 169.35 C 548.73 170.77 551.14 171.41 553.26 172.60 C 551.63 173.18 550.00 173.73 548.35 174.22 C 545.39 176.62 543.63 179.94 542.38 183.47 C 542.58 177.50 537.05 174.18 532.24 172.20 C 537.44 171.42 542.04 167.29 542.25 161.83 Z" />
<path fill="#cacaca" opacity="1.00" d=" M 194.97 176.92 C 198.04 176.23 199.96 178.79 201.97 180.61 C 204.01 178.72 206.04 176.29 209.16 176.84 C 209.42 179.91 206.84 181.74 205.05 183.81 C 206.88 185.61 209.14 187.33 209.30 190.13 C 206.23 191.88 204.13 188.48 201.99 186.84 C 199.88 188.52 197.81 191.98 194.75 190.01 C 195.13 187.36 197.10 185.54 198.93 183.81 C 197.17 181.79 194.76 179.90 194.97 176.92 Z" />
<path fill="#cacaca" opacity="1.00" d=" M 525.26 178.16 C 527.15 178.42 526.68 181.97 525.06 182.39 C 523.80 181.56 524.01 178.93 525.26 178.16 Z" />
<path fill="#cacaca" opacity="1.00" d=" M 114.84 194.13 C 115.25 190.62 117.29 187.71 120.40 186.05 C 123.02 186.59 126.12 186.74 127.88 189.05 C 131.05 192.98 128.35 200.04 123.01 199.97 C 119.07 200.54 116.63 197.03 114.84 194.13 M 120.30 190.44 C 118.82 191.52 118.53 193.91 119.64 195.35 C 121.15 197.81 125.61 196.95 125.89 193.98 C 126.72 191.04 122.64 188.20 120.30 190.44 Z" />
<path fill="#cacaca" opacity="1.00" d=" M 523.24 194.99 C 522.22 192.37 522.78 188.57 524.87 186.63 C 524.80 189.49 524.25 192.32 523.24 194.99 Z" />
<path fill="#cacaca" opacity="1.00" d=" M 519.36 205.60 C 519.95 203.05 520.09 199.58 522.53 198.12 C 522.10 200.66 521.47 203.20 520.32 205.51 C 520.08 205.53 519.60 205.58 519.36 205.60 Z" />
<path fill="#cacaca" opacity="1.00" d=" M 102.29 206.78 C 101.81 203.41 106.69 203.65 108.68 202.27 C 107.77 204.96 104.36 205.29 102.29 206.78 Z" />
<path fill="#cacaca" opacity="1.00" d=" M 90.80 211.72 C 92.37 209.35 95.35 208.64 97.69 207.25 C 97.64 207.71 97.53 208.63 97.48 209.09 C 95.30 210.08 93.25 211.52 90.80 211.72 Z" />
<path fill="#cacaca" opacity="1.00" d=" M 514.47 216.48 C 515.63 213.92 516.30 210.92 518.52 209.02 C 518.38 211.62 516.99 213.87 515.97 216.18 C 515.60 216.26 514.84 216.41 514.47 216.48 Z" />
<path fill="#cacaca" opacity="1.00" d=" M 81.22 217.91 C 81.20 215.03 84.93 214.44 86.92 213.10 C 87.12 213.32 87.52 213.76 87.72 213.98 C 85.67 215.47 83.45 216.71 81.22 217.91 Z" />
<path fill="#cacaca" opacity="1.00" d=" M 71.26 223.82 C 71.47 221.40 75.51 219.58 78.00 219.40 C 76.00 221.15 73.94 223.23 71.26 223.82 Z" />
<path fill="#cacaca" opacity="1.00" d=" M 512.21 220.36 C 512.56 220.39 513.27 220.45 513.62 220.47 C 511.97 222.63 511.04 225.70 508.32 226.75 C 509.18 224.39 510.61 222.28 512.21 220.36 Z" />
<path fill="#cacaca" opacity="1.00" d=" M 60.85 230.28 C 63.14 228.71 65.12 226.27 68.04 226.00 C 66.01 227.71 63.87 231.37 60.85 230.28 Z" />
<path fill="#cacaca" opacity="1.00" d=" M 52.35 237.55 C 54.07 235.78 55.98 234.20 58.03 232.82 C 57.59 235.62 54.77 237.20 52.64 238.70 C 52.57 238.41 52.42 237.84 52.35 237.55 Z" />
<path fill="#cacaca" opacity="1.00" d=" M 43.47 247.19 C 45.02 244.76 46.79 241.78 49.82 241.15 C 48.09 243.49 46.34 246.16 43.47 247.19 Z" />
<path fill="#cacaca" opacity="1.00" d=" M 36.28 255.68 C 38.01 253.74 38.97 250.47 41.82 250.03 C 40.49 252.22 38.90 254.24 37.40 256.33 C 37.12 256.16 36.56 255.84 36.28 255.68 Z" />
<path fill="#cacaca" opacity="1.00" d=" M 30.92 264.91 C 31.90 262.91 32.63 260.28 35.02 259.58 C 33.91 261.91 32.85 264.30 31.34 266.41 C 30.17 267.14 30.76 265.48 30.92 264.91 Z" />
<path fill="#cacaca" opacity="1.00" d=" M 28.62 270.09 C 30.30 270.94 28.87 272.70 28.69 273.99 C 28.09 275.35 28.14 277.44 26.39 277.84 C 26.86 275.19 27.66 272.60 28.62 270.09 Z" />
<path fill="#cacaca" opacity="1.00" d=" M 367.52 271.32 C 369.33 270.58 371.74 270.31 373.51 271.28 C 372.57 272.82 368.60 272.46 367.52 271.32 Z" />
<path fill="#cacaca" opacity="1.00" d=" M 25.24 289.82 C 25.48 287.30 23.89 283.16 26.65 281.79 C 26.54 284.04 26.35 286.29 26.25 288.55 C 26.00 288.87 25.49 289.50 25.24 289.82 Z" />
<path fill="#cacaca" opacity="1.00" d=" M 27.45 301.11 C 26.62 298.62 24.38 295.63 26.09 293.10 C 26.78 295.46 27.56 297.80 28.21 300.18 C 28.02 300.41 27.64 300.88 27.45 301.11 Z" />
<path fill="#cacaca" opacity="1.00" d=" M 29.37 304.30 C 32.07 305.20 34.30 308.21 34.74 311.02 C 32.51 309.17 30.64 306.90 29.37 304.30 Z" />
<path fill="#cacaca" opacity="1.00" d=" M 50.26 315.42 C 55.94 316.25 59.68 310.88 61.06 306.10 C 61.22 311.29 65.66 315.69 70.86 315.82 C 65.79 317.13 60.94 321.08 61.24 326.79 C 59.98 324.15 59.23 321.07 56.95 319.07 C 55.03 317.33 52.26 317.02 50.26 315.42 Z" />
<path fill="#cacaca" opacity="1.00" d=" M 37.11 313.31 C 39.94 313.69 42.73 316.16 43.67 318.84 C 41.12 317.50 38.81 315.66 37.11 313.31 Z" />
<path fill="#cacaca" opacity="1.00" d=" M 46.90 320.15 C 49.11 321.75 52.52 322.60 53.19 325.57 C 50.97 324.01 47.31 323.30 46.90 320.15 Z" />
<path fill="#cacaca" opacity="1.00" d=" M 56.21 327.22 C 58.96 326.83 61.10 328.85 63.42 329.95 C 63.41 330.33 63.41 331.09 63.41 331.48 C 60.94 330.19 58.43 328.93 56.21 327.22 Z" />
<path fill="#cacaca" opacity="1.00" d=" M 67.16 332.19 C 69.84 333.04 72.32 334.40 74.72 335.84 C 74.17 336.02 73.61 336.21 73.06 336.41 C 71.10 335.03 67.91 334.78 67.16 332.19 Z" />
<path fill="#cacaca" opacity="1.00" d=" M 416.74 333.29 C 418.37 333.49 420.02 333.51 421.63 333.12 C 421.52 334.13 421.42 335.14 421.32 336.17 C 419.76 335.25 418.24 334.28 416.74 333.29 Z" />
<path fill="#cacaca" opacity="1.00" d=" M 502.98 368.07 C 505.31 368.44 507.47 369.44 509.24 371.02 C 506.81 371.11 504.04 370.52 502.98 368.07 Z" />
<path fill="#cacaca" opacity="1.00" d=" M 79.43 417.62 C 83.95 414.15 91.06 418.52 90.41 424.05 C 90.44 429.37 83.70 432.64 79.42 429.62 C 75.09 427.16 75.13 420.10 79.43 417.62 M 79.74 422.91 C 78.90 425.09 81.44 426.35 82.77 427.54 C 83.95 427.04 85.13 426.54 86.30 426.04 C 86.44 424.45 87.19 422.48 85.86 421.22 C 84.06 419.18 80.30 420.25 79.74 422.91 Z" />
<path fill="#cacaca" opacity="1.00" d=" M 187.19 456.27 C 190.23 454.99 194.02 457.56 193.33 460.97 C 193.27 464.36 188.70 466.08 186.25 463.90 C 183.54 462.07 184.37 457.55 187.19 456.27 Z" />
<path fill="#cacaca" opacity="1.00" d=" M 474.11 478.03 C 475.36 478.61 476.60 479.20 477.83 479.87 C 478.71 479.09 479.66 478.43 480.71 477.90 C 481.07 479.49 480.28 480.78 479.31 481.96 C 480.56 482.90 480.85 484.31 480.75 485.81 C 479.46 485.15 478.26 484.33 477.08 483.51 C 476.65 484.07 475.78 485.20 475.34 485.77 C 474.73 485.34 474.12 484.94 473.57 484.46 C 474.24 483.60 474.95 482.77 475.69 481.97 C 474.76 480.81 473.89 479.59 474.11 478.03 Z" />
<path fill="#cacaca" opacity="1.00" d=" M 448.67 479.93 C 448.91 479.77 449.41 479.43 449.65 479.26 C 448.68 484.81 449.24 490.46 449.11 496.07 C 466.05 496.02 483.00 496.27 499.95 496.14 C 502.24 496.23 504.78 495.91 506.83 497.17 C 509.45 498.36 509.44 502.70 506.88 503.93 C 504.85 505.19 502.34 504.83 500.07 504.94 C 483.08 504.81 466.09 505.05 449.11 505.00 C 443.10 504.96 437.07 505.19 431.09 504.62 C 428.35 504.38 426.26 501.16 427.58 498.62 C 428.80 496.93 430.92 496.30 432.91 496.26 C 438.19 496.03 443.49 496.18 448.78 495.91 C 448.85 490.58 448.84 485.26 448.67 479.93 Z" />
<path fill="#cacaca" opacity="1.00" d=" M 168.44 495.53 C 170.57 496.05 172.76 496.30 174.96 496.33 C 195.65 496.28 216.33 496.31 237.02 496.30 C 263.34 496.14 289.67 496.73 315.98 495.93 C 330.66 495.89 345.34 495.94 360.02 495.93 C 369.23 496.03 378.47 495.63 387.66 496.45 C 389.83 496.64 392.73 497.48 392.87 500.11 C 393.38 503.74 388.90 504.81 386.10 504.78 C 365.40 505.37 344.69 504.95 323.99 505.11 C 313.31 505.28 302.65 504.45 291.97 504.64 C 260.34 504.74 228.70 504.62 197.07 504.63 C 192.49 504.64 187.84 504.18 183.37 505.44 C 181.96 504.92 180.52 504.44 179.01 504.54 C 143.66 504.57 108.32 504.54 72.97 504.20 C 70.30 504.10 67.53 504.08 64.97 503.23 C 63.00 502.62 63.57 500.29 63.34 498.76 C 66.32 496.26 70.42 496.87 74.03 496.69 C 105.61 496.42 137.19 496.20 168.77 496.43 L 168.44 495.53 Z" />
<path fill="#cacaca" opacity="1.00" d=" M 408.96 501.57 C 408.43 499.04 409.90 497.26 411.80 495.86 C 414.90 495.24 418.90 497.37 417.97 501.00 C 417.29 504.04 413.90 504.50 411.29 504.04 C 410.52 503.21 409.74 502.38 408.96 501.57 Z" />
<path fill="#cacaca" opacity="1.00" d=" M 206.49 517.62 C 232.33 517.79 258.17 517.49 284.01 517.62 C 286.67 517.24 290.61 519.95 288.95 522.82 C 287.32 526.19 283.10 525.28 280.05 525.45 C 261.84 525.52 243.60 524.95 225.41 525.68 C 219.63 524.95 213.80 525.34 208.00 525.22 C 186.02 525.22 164.05 525.19 142.09 524.41 C 139.59 524.36 137.13 523.93 134.71 523.37 C 134.38 522.68 134.04 521.99 133.70 521.32 C 133.97 520.88 134.51 519.99 134.78 519.54 C 140.73 517.97 146.97 518.48 153.06 518.19 C 170.86 517.47 188.68 518.02 206.49 517.62 Z" />
<path fill="#cacaca" opacity="1.00" d=" M 314.21 519.36 C 315.99 516.91 319.40 517.47 322.04 517.30 C 348.58 517.55 375.12 517.27 401.66 517.43 C 409.47 517.40 417.28 517.44 425.09 517.39 C 433.08 517.40 441.08 517.18 449.06 517.51 C 453.94 517.52 453.93 525.53 449.07 525.56 C 441.09 525.92 433.10 525.63 425.11 525.68 C 417.24 525.66 409.38 525.62 401.51 525.66 C 393.66 526.14 385.61 524.54 377.91 526.59 C 377.78 526.28 377.52 525.67 377.39 525.36 C 374.91 525.69 372.46 526.31 369.97 526.51 C 367.65 526.09 365.34 525.57 362.97 525.56 C 350.67 525.64 338.36 525.52 326.05 525.68 C 322.95 525.64 319.80 525.90 316.74 525.30 C 314.12 524.90 312.63 521.52 314.21 519.36 Z" />
<path fill="#cacaca" opacity="1.00" d=" M 183.85 528.03 C 185.10 530.65 187.20 532.80 189.95 533.86 C 186.92 533.95 185.13 536.53 183.83 538.96 C 183.65 535.91 181.07 533.83 178.13 533.90 C 180.85 533.01 183.61 531.14 183.85 528.03 Z" />
<path fill="#cacaca" opacity="1.00" d=" M 36.42 543.54 C 38.19 541.90 40.78 542.27 42.99 542.18 C 70.66 542.33 98.33 541.87 125.99 542.12 C 129.10 542.34 133.28 541.68 134.95 545.06 C 135.08 545.74 135.22 546.42 135.37 547.10 C 134.39 549.25 132.40 550.75 129.95 550.56 C 114.33 551.26 98.69 550.77 83.06 550.71 C 69.03 550.68 55.00 550.62 40.97 550.63 C 38.88 550.71 36.35 550.06 35.50 547.95 C 35.25 546.47 35.11 544.58 36.42 543.54 Z" />
<path fill="#cacaca" opacity="1.00" d=" M 153.40 542.65 C 157.63 542.10 162.14 541.98 166.17 543.60 C 166.48 544.11 167.09 545.14 167.39 545.65 C 167.38 546.08 167.37 546.96 167.36 547.39 C 167.05 547.88 166.43 548.86 166.12 549.35 C 161.93 550.85 157.33 550.82 152.98 550.15 C 151.35 549.88 150.44 548.46 149.65 547.18 C 149.66 546.81 149.66 546.09 149.67 545.73 C 150.47 544.28 151.60 542.81 153.40 542.65 Z" />
<path fill="#cacaca" opacity="1.00" d=" M 192.69 543.79 C 194.82 542.28 197.44 541.94 200.00 542.05 C 249.31 542.25 298.63 542.12 347.94 542.33 C 350.54 542.15 353.41 544.12 352.72 547.02 C 352.86 549.52 350.11 550.72 347.98 550.69 C 298.63 550.87 249.28 550.70 199.93 550.91 C 197.42 551.05 194.92 550.55 192.78 549.21 C 192.51 548.41 192.24 547.61 191.95 546.83 C 192.19 545.82 192.43 544.80 192.69 543.79 Z" />
<path fill="#cacaca" opacity="1.00" d=" M 405.66 542.56 C 412.13 542.01 418.66 542.48 425.15 542.28 C 433.12 542.22 441.09 542.20 449.06 542.24 C 478.37 542.07 507.68 541.92 536.99 542.12 C 541.00 542.36 545.00 542.80 549.03 542.74 C 549.60 542.97 550.72 543.41 551.28 543.63 C 552.22 545.02 552.53 546.64 552.58 548.31 L 551.39 548.42 L 551.51 549.44 C 548.55 550.85 545.22 550.32 542.06 550.63 C 536.07 551.25 530.04 550.83 524.03 551.00 C 498.37 550.98 472.71 551.01 447.05 550.81 C 443.75 550.59 441.17 553.27 437.89 553.29 C 434.66 553.83 431.95 551.79 429.06 550.88 C 421.71 550.57 414.34 550.90 406.98 550.67 C 405.40 550.67 404.07 549.71 402.68 549.11 C 401.95 546.51 402.27 542.87 405.66 542.56 Z" />
</g>
<g id="#ecececff">
<path fill="#ececec" opacity="1.00" d=" M 206.65 90.08 C 206.63 84.71 210.42 79.20 215.89 78.24 C 222.32 76.41 229.76 81.39 230.44 88.08 C 230.97 93.99 230.75 99.95 230.98 105.89 C 279.13 90.30 332.60 91.65 379.73 110.20 C 435.09 131.64 481.07 176.29 503.82 231.15 C 504.39 230.71 505.53 229.83 506.10 229.39 C 506.17 229.69 506.33 230.29 506.41 230.59 C 505.69 231.31 504.97 232.03 504.27 232.76 C 511.98 249.89 516.36 268.38 519.02 286.93 C 522.21 310.59 521.58 334.74 517.14 358.19 C 513.48 375.18 508.83 392.02 502.11 408.08 C 490.11 435.25 472.27 459.95 449.65 479.26 C 449.41 479.43 448.91 479.77 448.67 479.93 C 448.84 485.26 448.85 490.58 448.78 495.91 C 443.49 496.18 438.19 496.03 432.91 496.26 C 430.92 496.30 428.80 496.93 427.58 498.62 C 426.26 501.16 428.35 504.38 431.09 504.62 C 437.07 505.19 443.10 504.96 449.11 505.00 C 449.08 509.16 449.12 513.33 449.06 517.51 C 441.08 517.18 433.08 517.40 425.09 517.39 C 425.05 502.91 425.08 488.43 425.00 473.95 C 425.01 467.77 419.03 462.50 412.94 462.93 C 407.14 462.96 401.83 468.12 401.99 473.98 C 401.84 488.46 401.59 502.95 401.66 517.43 C 375.12 517.27 348.58 517.55 322.04 517.30 C 319.40 517.47 315.99 516.91 314.21 519.36 C 312.63 521.52 314.12 524.90 316.74 525.30 C 319.80 525.90 322.95 525.64 326.05 525.68 C 338.36 525.52 350.67 525.64 362.97 525.56 C 365.34 525.57 367.65 526.09 369.97 526.51 C 356.44 531.18 342.35 534.42 328.13 536.25 C 319.13 537.53 310.02 537.46 300.97 538.19 C 275.36 538.00 249.56 534.41 225.41 525.68 C 243.60 524.95 261.84 525.52 280.05 525.45 C 283.10 525.28 287.32 526.19 288.95 522.82 C 290.61 519.95 286.67 517.24 284.01 517.62 C 258.17 517.49 232.33 517.79 206.49 517.62 C 198.38 514.39 190.73 510.08 183.37 505.44 C 187.84 504.18 192.49 504.64 197.07 504.63 C 228.70 504.62 260.34 504.74 291.97 504.64 C 302.65 504.45 313.31 505.28 323.99 505.11 C 344.69 504.95 365.40 505.37 386.10 504.78 C 388.90 504.81 393.38 503.74 392.87 500.11 C 392.73 497.48 389.83 496.64 387.66 496.45 C 378.47 495.63 369.23 496.03 360.02 495.93 C 345.34 495.94 330.66 495.89 315.98 495.93 C 289.67 496.73 263.34 496.14 237.02 496.30 C 216.33 496.31 195.65 496.28 174.96 496.33 C 172.76 496.30 170.57 496.05 168.44 495.53 C 134.17 470.66 107.55 435.44 92.37 395.94 C 74.18 348.84 72.94 295.50 88.82 247.58 C 94.99 228.68 103.86 210.69 114.84 194.13 C 116.63 197.03 119.07 200.54 123.01 199.97 C 128.35 200.04 131.05 192.98 127.88 189.05 C 126.12 186.74 123.02 186.59 120.40 186.05 C 131.52 171.07 144.12 157.08 158.84 145.55 C 159.04 140.02 159.15 134.48 159.35 128.95 C 159.57 122.24 166.77 117.19 173.17 118.50 C 178.29 119.39 182.60 123.81 183.07 129.04 C 183.51 136.68 182.97 144.36 183.32 152.01 C 183.94 159.06 192.13 164.18 198.72 161.55 C 203.22 160.10 206.53 155.71 206.60 150.97 C 206.68 130.67 206.59 110.38 206.65 90.08 M 194.97 176.92 C 194.76 179.90 197.17 181.79 198.93 183.81 C 197.10 185.54 195.13 187.36 194.75 190.01 C 197.81 191.98 199.88 188.52 201.99 186.84 C 204.13 188.48 206.23 191.88 209.30 190.13 C 209.14 187.33 206.88 185.61 205.05 183.81 C 206.84 181.74 209.42 179.91 209.16 176.84 C 206.04 176.29 204.01 178.72 201.97 180.61 C 199.96 178.79 198.04 176.23 194.97 176.92 M 451.15 214.84 C 451.76 215.16 452.98 215.79 453.58 216.10 C 454.09 218.38 455.13 221.29 457.98 221.23 C 462.05 222.13 464.64 216.11 461.51 213.64 C 458.44 211.17 454.06 212.96 451.15 214.84 M 472.32 219.32 C 472.79 219.80 472.79 219.80 472.32 219.32 M 453.17 221.02 C 451.00 226.00 448.87 231.00 446.72 235.99 C 447.05 236.16 447.72 236.48 448.06 236.65 C 447.71 237.25 447.00 238.47 446.65 239.07 C 441.74 240.44 437.20 242.89 432.35 244.47 C 432.14 245.56 431.92 246.65 431.71 247.75 C 430.98 248.61 430.27 249.49 429.57 250.38 C 434.26 250.28 435.00 244.61 438.90 242.97 L 439.38 244.29 C 436.40 246.53 434.15 250.07 434.83 253.94 C 434.95 258.82 439.31 262.58 443.90 263.28 C 446.97 262.98 450.40 262.07 452.26 259.40 C 454.57 256.52 454.62 252.58 454.12 249.10 C 454.66 248.94 455.75 248.61 456.30 248.44 C 456.51 249.06 456.94 250.28 457.15 250.89 C 458.80 251.62 460.44 252.38 462.08 253.15 C 462.68 251.90 463.28 250.65 463.87 249.40 C 462.85 248.88 461.84 248.37 460.83 247.87 C 461.97 244.99 463.14 242.11 464.13 239.18 C 460.14 237.33 456.08 235.65 452.05 233.90 C 453.03 231.48 454.06 229.10 455.13 226.72 C 459.57 227.70 463.36 230.60 467.79 231.52 C 468.47 230.28 469.95 227.80 467.75 227.34 C 462.82 225.38 458.00 223.20 453.17 221.02 M 467.19 222.04 C 467.17 222.67 467.12 223.91 467.09 224.53 C 468.38 224.54 469.68 224.56 470.98 224.58 C 471.93 225.59 472.89 226.61 473.84 227.63 C 472.29 228.95 470.77 230.34 469.69 232.09 C 471.74 231.11 473.42 229.55 475.34 228.36 C 477.51 227.54 479.91 227.76 482.20 227.49 C 479.90 227.22 477.59 227.04 475.30 226.82 C 473.19 224.35 470.81 221.58 467.19 222.04 M 476.48 229.61 C 469.55 231.91 467.52 242.17 473.41 246.67 C 478.62 251.31 488.21 248.65 489.42 241.52 C 491.68 234.15 483.63 226.88 476.48 229.61 M 394.79 243.79 C 392.45 247.68 392.92 252.84 395.45 256.54 C 398.07 259.41 402.17 260.54 405.95 259.74 C 403.24 258.77 399.70 258.44 398.69 255.26 C 400.55 256.03 402.31 257.12 404.30 257.55 C 409.95 257.31 415.35 249.64 411.16 244.80 C 409.16 242.20 406.54 239.59 403.09 239.35 C 399.92 239.69 396.72 241.19 394.79 243.79 M 225.26 248.99 C 225.14 251.91 227.61 253.80 229.35 255.77 C 272.25 255.69 315.15 255.84 358.05 255.79 C 361.59 255.48 366.16 257.01 368.60 253.57 C 373.19 249.06 370.09 239.01 362.94 239.89 C 327.63 239.58 292.32 239.65 257.01 239.79 C 248.01 239.89 238.98 239.60 230.01 240.44 C 226.05 240.82 224.74 245.64 225.26 248.99 M 222.77 265.47 C 217.61 277.18 213.07 289.17 208.48 301.12 C 207.70 303.40 205.80 305.48 206.31 308.04 C 207.14 316.61 212.92 324.62 221.06 327.64 C 229.79 331.15 240.49 328.96 247.00 322.14 C 249.58 319.63 250.95 316.26 252.73 313.21 C 255.42 320.95 261.94 327.24 270.02 328.99 C 279.36 331.39 289.88 327.37 295.34 319.44 C 296.39 317.78 297.35 316.04 298.83 314.70 C 300.70 318.68 303.12 322.57 306.89 325.00 C 311.07 328.13 316.31 329.07 321.29 330.13 C 325.56 328.87 330.15 328.20 333.90 325.61 C 338.47 322.76 341.68 318.19 343.39 313.13 C 345.36 315.17 346.15 317.98 347.82 320.23 C 353.20 327.59 363.14 331.14 371.99 329.03 C 379.52 327.52 385.84 321.84 388.81 314.85 C 389.81 312.07 391.18 308.93 389.90 306.02 C 384.50 292.40 379.03 278.81 373.77 265.14 C 356.86 264.37 339.92 265.13 323.01 264.83 C 295.65 265.19 268.30 264.70 240.95 264.79 C 234.89 264.82 228.78 264.70 222.77 265.47 M 416.74 333.29 C 418.24 334.28 419.76 335.25 421.32 336.17 C 421.42 335.14 421.52 334.13 421.63 333.12 C 420.02 333.51 418.37 333.49 416.74 333.29 M 228.76 341.89 C 225.57 343.11 223.93 346.68 224.14 349.95 C 224.36 364.31 223.60 378.68 224.12 393.04 C 224.25 396.02 223.77 399.15 224.86 402.01 C 226.80 407.82 232.78 412.28 238.99 411.88 C 275.65 411.81 312.32 411.79 348.99 411.85 C 352.94 411.80 356.95 412.18 360.88 411.53 C 366.47 409.96 371.19 404.94 371.85 399.12 C 371.97 382.73 371.89 366.35 371.85 349.97 C 372.16 345.59 368.55 341.19 364.03 341.31 C 360.36 341.72 357.03 345.22 357.19 348.99 C 357.00 365.27 357.14 381.56 357.08 397.84 C 342.41 398.52 327.70 398.04 313.02 397.86 C 288.42 397.76 263.82 398.40 239.22 397.90 C 239.32 383.60 239.07 369.30 239.16 355.00 C 239.06 351.73 239.27 348.25 237.71 345.27 C 236.24 342.04 232.00 340.25 228.76 341.89 M 502.98 368.07 C 504.04 370.52 506.81 371.11 509.24 371.02 C 507.47 369.44 505.31 368.44 502.98 368.07 M 187.19 456.27 C 184.37 457.55 183.54 462.07 186.25 463.90 C 188.70 466.08 193.27 464.36 193.33 460.97 C 194.02 457.56 190.23 454.99 187.19 456.27 Z" />
<path fill="#ececec" opacity="1.00" d=" M 354.75 272.73 C 356.96 271.55 359.44 271.19 361.91 271.06 C 362.17 271.52 362.69 272.43 362.95 272.89 C 360.22 273.36 357.43 273.50 354.75 272.73 Z" />
<path fill="#ececec" opacity="1.00" d=" M 342.91 272.22 C 345.33 271.82 347.80 271.52 350.24 271.98 C 351.42 274.10 348.16 274.07 346.98 273.93 C 345.42 273.94 344.14 273.04 342.91 272.22 Z" />
<path fill="#ececec" opacity="1.00" d=" M 331.42 275.13 C 332.24 271.90 335.97 273.01 338.38 273.04 C 337.59 276.18 333.74 274.96 331.42 275.13 Z" />
<path fill="#ececec" opacity="1.00" d=" M 319.57 277.23 C 320.40 274.15 323.93 274.68 326.38 274.57 C 325.41 277.29 321.85 276.79 319.57 277.23 Z" />
<path fill="#ececec" opacity="1.00" d=" M 308.56 281.07 C 309.05 277.89 312.74 277.51 315.25 276.75 C 315.42 280.29 310.94 280.01 308.56 281.07 Z" />
<path fill="#ececec" opacity="1.00" d=" M 298.64 287.48 C 299.63 284.99 301.58 282.66 304.48 282.56 C 303.24 284.89 301.32 286.94 298.64 287.48 Z" />
<path fill="#ececec" opacity="1.00" d=" M 293.88 298.29 C 293.97 295.66 293.61 290.98 297.13 290.63 C 296.36 293.25 296.74 296.91 293.88 298.29 Z" />
<path fill="#ececec" opacity="1.00" d=" M 377.91 526.59 C 385.61 524.54 393.66 526.14 401.51 525.66 C 400.65 529.42 398.05 532.65 394.61 534.36 C 388.25 537.95 379.90 533.21 377.91 526.59 Z" />
<path fill="#ececec" opacity="1.00" d=" M 425.11 525.68 C 433.10 525.63 441.09 525.92 449.07 525.56 C 449.10 531.12 449.12 536.68 449.06 542.24 C 441.09 542.20 433.12 542.22 425.15 542.28 C 425.11 536.74 425.12 531.21 425.11 525.68 Z" />
</g>
<g id="#ffffffff">
<path fill="#ffffff" opacity="1.00" d=" M 120.30 190.44 C 122.64 188.20 126.72 191.04 125.89 193.98 C 125.61 196.95 121.15 197.81 119.64 195.35 C 118.53 193.91 118.82 191.52 120.30 190.44 Z" />
<path fill="#ffffff" opacity="1.00" d=" M 477.19 232.35 C 481.52 230.29 487.40 234.12 486.83 239.02 C 487.65 245.22 478.81 248.72 474.82 244.15 C 470.92 240.79 472.57 234.11 477.19 232.35 Z" />
<path fill="#ffffff" opacity="1.00" d=" M 446.65 239.07 C 447.00 238.47 447.71 237.25 448.06 236.65 C 451.59 238.36 455.24 239.82 458.85 241.36 C 457.86 243.67 456.93 246.01 456.30 248.44 C 455.75 248.61 454.66 248.94 454.12 249.10 C 451.54 243.67 444.67 241.34 439.38 244.29 L 438.90 242.97 C 442.83 240.60 447.51 242.24 451.64 240.76 C 449.99 240.13 448.35 239.54 446.65 239.07 Z" />
<path fill="#ffffff" opacity="1.00" d=" M 394.79 243.79 C 396.72 241.19 399.92 239.69 403.09 239.35 C 406.54 239.59 409.16 242.20 411.16 244.80 C 415.35 249.64 409.95 257.31 404.30 257.55 C 402.31 257.12 400.55 256.03 398.69 255.26 C 399.70 258.44 403.24 258.77 405.95 259.74 C 402.17 260.54 398.07 259.41 395.45 256.54 C 392.92 252.84 392.45 247.68 394.79 243.79 Z" />
<path fill="#ffffff" opacity="1.00" d=" M 229.27 241.23 C 270.45 241.00 311.74 241.12 352.96 241.19 C 357.48 241.22 362.03 240.87 366.54 241.31 C 371.86 243.84 370.63 254.88 363.98 254.56 C 319.99 254.70 276.00 254.79 232.01 254.55 C 225.05 255.03 223.73 244.04 229.27 241.23 Z" />
<path fill="#ffffff" opacity="1.00" d=" M 442.19 246.28 C 446.98 244.30 452.70 248.99 451.76 254.07 C 451.21 259.25 444.38 262.22 440.31 258.84 C 435.74 255.74 436.91 247.91 442.19 246.28 Z" />
<path fill="#ffffff" opacity="1.00" d=" M 222.96 266.59 C 246.96 266.42 270.96 266.45 294.96 266.20 C 321.05 266.33 347.15 266.52 373.25 266.46 C 378.73 280.27 384.06 294.15 389.48 307.98 C 388.84 313.62 386.11 319.04 381.93 322.88 C 376.93 326.75 370.55 329.44 364.13 328.44 C 357.45 327.78 351.32 323.86 347.55 318.37 C 345.93 315.98 345.47 312.96 343.53 310.78 C 341.38 318.88 335.13 325.91 326.83 327.87 C 319.12 330.37 310.69 327.34 304.75 322.28 C 301.73 318.70 299.17 314.25 299.16 309.44 C 296.85 307.47 295.63 304.70 294.33 302.04 C 295.04 304.81 296.57 307.24 297.75 309.82 C 296.83 319.50 288.27 327.15 278.86 328.40 C 269.84 329.81 260.15 325.16 255.78 317.13 C 254.50 314.84 253.45 312.44 252.41 310.04 C 250.35 317.78 244.86 324.74 237.00 327.09 C 225.05 331.54 210.60 323.49 207.84 311.09 C 206.36 307.03 208.94 303.24 210.30 299.57 C 214.51 288.57 219.13 277.73 222.96 266.59 M 354.75 272.73 C 357.43 273.50 360.22 273.36 362.95 272.89 C 362.69 272.43 362.17 271.52 361.91 271.06 C 359.44 271.19 356.96 271.55 354.75 272.73 M 367.52 271.32 C 368.60 272.46 372.57 272.82 373.51 271.28 C 371.74 270.31 369.33 270.58 367.52 271.32 M 342.91 272.22 C 344.14 273.04 345.42 273.94 346.98 273.93 C 348.16 274.07 351.42 274.10 350.24 271.98 C 347.80 271.52 345.33 271.82 342.91 272.22 M 331.42 275.13 C 333.74 274.96 337.59 276.18 338.38 273.04 C 335.97 273.01 332.24 271.90 331.42 275.13 M 319.57 277.23 C 321.85 276.79 325.41 277.29 326.38 274.57 C 323.93 274.68 320.40 274.15 319.57 277.23 M 308.56 281.07 C 310.94 280.01 315.42 280.29 315.25 276.75 C 312.74 277.51 309.05 277.89 308.56 281.07 M 298.64 287.48 C 301.32 286.94 303.24 284.89 304.48 282.56 C 301.58 282.66 299.63 284.99 298.64 287.48 M 293.88 298.29 C 296.74 296.91 296.36 293.25 297.13 290.63 C 293.61 290.98 293.97 295.66 293.88 298.29 Z" />
<path fill="#ffffff" opacity="1.00" d=" M 225.32 350.05 C 225.25 346.93 227.11 343.86 230.03 342.71 C 234.19 341.68 237.92 345.96 237.67 349.92 C 237.73 366.18 237.92 382.45 237.88 398.71 C 242.59 399.16 247.32 399.11 252.05 399.08 C 283.72 399.07 315.38 399.15 347.04 399.05 C 350.58 398.90 354.24 399.59 357.69 398.47 C 359.37 397.77 361.20 398.14 362.95 398.29 C 361.27 398.00 359.58 397.72 357.90 397.47 C 358.39 381.33 358.10 365.18 358.40 349.04 C 358.31 345.87 360.77 342.82 363.99 342.55 C 367.30 342.00 370.19 345.34 370.55 348.38 C 371.02 365.07 370.50 381.78 370.62 398.48 C 370.37 398.71 369.86 399.17 369.60 399.40 C 369.83 399.80 370.30 400.59 370.53 400.99 C 368.60 406.18 363.96 411.09 358.05 410.96 C 320.04 411.03 282.03 411.06 244.02 410.94 C 241.19 410.91 238.31 411.23 235.51 410.64 C 230.05 408.96 225.29 403.92 225.25 398.00 C 225.02 392.24 225.46 386.48 225.10 380.73 C 228.05 381.07 231.02 381.39 233.99 381.55 C 231.21 380.23 227.12 381.64 225.37 378.61 C 224.97 369.10 225.17 359.56 225.32 350.05 Z" />
<path fill="#ffffff" opacity="1.00" d=" M 387.89 548.82 C 390.76 547.15 393.88 549.18 395.44 551.65 C 395.46 552.57 395.49 554.42 395.51 555.34 C 394.08 558.42 390.06 560.33 387.11 558.04 C 383.64 555.93 384.15 550.35 387.89 548.82 Z" />
</g>
<g id="#989898f4">
<path fill="#989898" opacity="0.96" d=" M 451.15 214.84 C 454.06 212.96 458.44 211.17 461.51 213.64 C 464.64 216.11 462.05 222.13 457.98 221.23 C 455.13 221.29 454.09 218.38 453.58 216.10 C 452.98 215.79 451.76 215.16 451.15 214.84 Z" />
<path fill="#989898" opacity="0.96" d=" M 472.32 219.32 C 472.79 219.80 472.79 219.80 472.32 219.32 Z" />
<path fill="#989898" opacity="0.96" d=" M 453.17 221.02 C 458.00 223.20 462.82 225.38 467.75 227.34 C 469.95 227.80 468.47 230.28 467.79 231.52 C 463.36 230.60 459.57 227.70 455.13 226.72 C 454.06 229.10 453.03 231.48 452.05 233.90 C 456.08 235.65 460.14 237.33 464.13 239.18 C 463.14 242.11 461.97 244.99 460.83 247.87 C 461.84 248.37 462.85 248.88 463.87 249.40 C 463.28 250.65 462.68 251.90 462.08 253.15 C 460.44 252.38 458.80 251.62 457.15 250.89 C 456.94 250.28 456.51 249.06 456.30 248.44 C 456.93 246.01 457.86 243.67 458.85 241.36 C 455.24 239.82 451.59 238.36 448.06 236.65 C 447.72 236.48 447.05 236.16 446.72 235.99 C 448.87 231.00 451.00 226.00 453.17 221.02 Z" />
<path fill="#989898" opacity="0.96" d=" M 467.19 222.04 C 470.81 221.58 473.19 224.35 475.30 226.82 C 477.59 227.04 479.90 227.22 482.20 227.49 C 479.91 227.76 477.51 227.54 475.34 228.36 C 473.42 229.55 471.74 231.11 469.69 232.09 C 470.77 230.34 472.29 228.95 473.84 227.63 C 472.89 226.61 471.93 225.59 470.98 224.58 C 469.68 224.56 468.38 224.54 467.09 224.53 C 467.12 223.91 467.17 222.67 467.19 222.04 Z" />
<path fill="#989898" opacity="0.96" d=" M 476.48 229.61 C 483.63 226.88 491.68 234.15 489.42 241.52 C 488.21 248.65 478.62 251.31 473.41 246.67 C 467.52 242.17 469.55 231.91 476.48 229.61 M 477.19 232.35 C 472.57 234.11 470.92 240.79 474.82 244.15 C 478.81 248.72 487.65 245.22 486.83 239.02 C 487.40 234.12 481.52 230.29 477.19 232.35 Z" />
<path fill="#989898" opacity="0.96" d=" M 432.35 244.47 C 437.20 242.89 441.74 240.44 446.65 239.07 C 448.35 239.54 449.99 240.13 451.64 240.76 C 447.51 242.24 442.83 240.60 438.90 242.97 C 435.00 244.61 434.26 250.28 429.57 250.38 C 430.27 249.49 430.98 248.61 431.71 247.75 C 431.92 246.65 432.14 245.56 432.35 244.47 Z" />
<path fill="#989898" opacity="0.96" d=" M 225.26 248.99 C 224.74 245.64 226.05 240.82 230.01 240.44 C 238.98 239.60 248.01 239.89 257.01 239.79 C 292.32 239.65 327.63 239.58 362.94 239.89 C 370.09 239.01 373.19 249.06 368.60 253.57 C 366.16 257.01 361.59 255.48 358.05 255.79 C 315.15 255.84 272.25 255.69 229.35 255.77 C 227.61 253.80 225.14 251.91 225.26 248.99 M 229.27 241.23 C 223.73 244.04 225.05 255.03 232.01 254.55 C 276.00 254.79 319.99 254.70 363.98 254.56 C 370.63 254.88 371.86 243.84 366.54 241.31 C 362.03 240.87 357.48 241.22 352.96 241.19 C 311.74 241.12 270.45 241.00 229.27 241.23 Z" />
<path fill="#989898" opacity="0.96" d=" M 439.38 244.29 C 444.67 241.34 451.54 243.67 454.12 249.10 C 454.62 252.58 454.57 256.52 452.26 259.40 C 450.40 262.07 446.97 262.98 443.90 263.28 C 439.31 262.58 434.95 258.82 434.83 253.94 C 434.15 250.07 436.40 246.53 439.38 244.29 M 442.19 246.28 C 436.91 247.91 435.74 255.74 440.31 258.84 C 444.38 262.22 451.21 259.25 451.76 254.07 C 452.70 248.99 446.98 244.30 442.19 246.28 Z" />
<path fill="#989898" opacity="0.96" d=" M 222.77 265.47 C 228.78 264.70 234.89 264.82 240.95 264.79 C 268.30 264.70 295.65 265.19 323.01 264.83 C 339.92 265.13 356.86 264.37 373.77 265.14 C 379.03 278.81 384.50 292.40 389.90 306.02 C 391.18 308.93 389.81 312.07 388.81 314.85 C 385.84 321.84 379.52 327.52 371.99 329.03 C 363.14 331.14 353.20 327.59 347.82 320.23 C 346.15 317.98 345.36 315.17 343.39 313.13 C 341.68 318.19 338.47 322.76 333.90 325.61 C 330.15 328.20 325.56 328.87 321.29 330.13 C 316.31 329.07 311.07 328.13 306.89 325.00 C 303.12 322.57 300.70 318.68 298.83 314.70 C 297.35 316.04 296.39 317.78 295.34 319.44 C 289.88 327.37 279.36 331.39 270.02 328.99 C 261.94 327.24 255.42 320.95 252.73 313.21 C 250.95 316.26 249.58 319.63 247.00 322.14 C 240.49 328.96 229.79 331.15 221.06 327.64 C 212.92 324.62 207.14 316.61 206.31 308.04 C 205.80 305.48 207.70 303.40 208.48 301.12 C 213.07 289.17 217.61 277.18 222.77 265.47 M 222.96 266.59 C 219.13 277.73 214.51 288.57 210.30 299.57 C 208.94 303.24 206.36 307.03 207.84 311.09 C 210.60 323.49 225.05 331.54 237.00 327.09 C 244.86 324.74 250.35 317.78 252.41 310.04 C 253.45 312.44 254.50 314.84 255.78 317.13 C 260.15 325.16 269.84 329.81 278.86 328.40 C 288.27 327.15 296.83 319.50 297.75 309.82 C 296.57 307.24 295.04 304.81 294.33 302.04 C 295.63 304.70 296.85 307.47 299.16 309.44 C 299.17 314.25 301.73 318.70 304.75 322.28 C 310.69 327.34 319.12 330.37 326.83 327.87 C 335.13 325.91 341.38 318.88 343.53 310.78 C 345.47 312.96 345.93 315.98 347.55 318.37 C 351.32 323.86 357.45 327.78 364.13 328.44 C 370.55 329.44 376.93 326.75 381.93 322.88 C 386.11 319.04 388.84 313.62 389.48 307.98 C 384.06 294.15 378.73 280.27 373.25 266.46 C 347.15 266.52 321.05 266.33 294.96 266.20 C 270.96 266.45 246.96 266.42 222.96 266.59 Z" />
<path fill="#989898" opacity="0.96" d=" M 228.76 341.89 C 232.00 340.25 236.24 342.04 237.71 345.27 C 239.27 348.25 239.06 351.73 239.16 355.00 C 239.07 369.30 239.32 383.60 239.22 397.90 C 263.82 398.40 288.42 397.76 313.02 397.86 C 327.70 398.04 342.41 398.52 357.08 397.84 C 357.14 381.56 357.00 365.27 357.19 348.99 C 357.03 345.22 360.36 341.72 364.03 341.31 C 368.55 341.19 372.16 345.59 371.85 349.97 C 371.89 366.35 371.97 382.73 371.85 399.12 C 371.19 404.94 366.47 409.96 360.88 411.53 C 356.95 412.18 352.94 411.80 348.99 411.85 C 312.32 411.79 275.65 411.81 238.99 411.88 C 232.78 412.28 226.80 407.82 224.86 402.01 C 223.77 399.15 224.25 396.02 224.12 393.04 C 223.60 378.68 224.36 364.31 224.14 349.95 C 223.93 346.68 225.57 343.11 228.76 341.89 M 225.32 350.05 C 225.17 359.56 224.97 369.10 225.37 378.61 C 227.12 381.64 231.21 380.23 233.99 381.55 C 231.02 381.39 228.05 381.07 225.10 380.73 C 225.46 386.48 225.02 392.24 225.25 398.00 C 225.29 403.92 230.05 408.96 235.51 410.64 C 238.31 411.23 241.19 410.91 244.02 410.94 C 282.03 411.06 320.04 411.03 358.05 410.96 C 363.96 411.09 368.60 406.18 370.53 400.99 C 370.30 400.59 369.83 399.80 369.60 399.40 C 369.86 399.17 370.37 398.71 370.62 398.48 C 370.50 381.78 371.02 365.07 370.55 348.38 C 370.19 345.34 367.30 342.00 363.99 342.55 C 360.77 342.82 358.31 345.87 358.40 349.04 C 358.10 365.18 358.39 381.33 357.90 397.47 C 359.58 397.72 361.27 398.00 362.95 398.29 C 361.20 398.14 359.37 397.77 357.69 398.47 C 354.24 399.59 350.58 398.90 347.04 399.05 C 315.38 399.15 283.72 399.07 252.05 399.08 C 247.32 399.11 242.59 399.16 237.88 398.71 C 237.92 382.45 237.73 366.18 237.67 349.92 C 237.92 345.96 234.19 341.68 230.03 342.71 C 227.11 343.86 225.25 346.93 225.32 350.05 Z" />
</g>
</svg>
