<svg height="600pt" viewBox="0 0 600 600" width="600pt" xmlns="http://www.w3.org/2000/svg"><path d="m364.46 60.14c1.64-7.37 11.61-9.14 17.44-5.72 3.69 1.77 4.33 6.12 5.37 9.64-.89 3.23-1.17 7.05-3.93 9.34-3.6 2.72-8.64 4.03-12.74 1.58l.98.18c4.65.67 10.22-.28 12.77-4.69 3.53-5.17 1.56-13.05-4.05-15.85-5.17-2.5-12.49-.6-14.8 4.93-1.89 3.72-.8 7.94.69 11.58.08.47.23 1.41.3 1.88-2.27-3.82-3.7-8.54-2.03-12.87z" fill="#797979"/><path d="m426.67 144.53c1.2.01 2.41.03 3.63.04-.02 2.7-.03 5.4-.05 8.1 2.4-.04 4.81-.15 7.22.05 1.12.5.91 2.02 1.39 2.98-2.83.58-5.71.73-8.58.56 0 2.7 0 5.39.01 8.09-.9.01-2.71.02-3.61.03 0-2.73-.01-5.45-.01-8.18-2.7.04-5.39.07-8.08.08-.02-.92-.06-2.74-.08-3.65 2.72.02 5.45.04 8.18.08 0-2.73-.02-5.46-.02-8.18z" fill="#797979"/><g fill="#fff"><path d="m365.5 59.55c2.31-5.53 9.63-7.43 14.8-4.93 5.61 2.8 7.58 10.68 4.05 15.85-2.55 4.41-8.12 5.36-12.77 4.69-1.73-.38-3.1-1.54-4.43-2.62l-.37.05c-.14-.36-.44-1.1-.59-1.46-1.49-3.64-2.58-7.86-.69-11.58z"/><path d="m279.27 113.36c3.31-1.63 7.78 1.01 8.06 4.66.44 3.86-3.61 7.47-7.41 6.39-2.55-1.03-4.67-3.63-4.42-6.49.55-1.96 1.88-3.72 3.77-4.56z"/><path d="m251.71 196.66c8.09-5.77 20.11-4.05 26.8 3.14 9.24-3.83 20.64 2.24 22.6 12.03 2.17 8.52-3.77 16.88-11.58 19.88 3.96 16.04 7.5 32.19 11.23 48.28-13.06-11.17-25.5-23.07-38.62-34.19-4.2 3.45-9.82 5.56-15.25 4.07-9.02-1.85-15.27-12.24-12.15-21.03 1.24-4.59 4.88-7.86 8.64-10.47-2.22-8.03 1.47-17.12 8.33-21.71z"/><path d="m302.09 224.08c7.33-3.7 14.68-7.37 22-11.09 5.94 10.37 12.42 20.43 18.16 30.92-14.18 7.9-28.31 15.87-42.35 24-2.48-11.84-5.69-23.53-7.83-35.44 4.23-1.68 6.71-5.56 10.02-8.39z"/><path d="m448.4 218.5c5.78-1.52 11.82 4.76 9.61 10.45-1.58 5.54-9.35 7.58-13.42 3.46-4.66-4.1-2.43-12.85 3.81-13.91z"/><path d="m379.82 238.18c2.57-1.4 5.18-3.02 8.19-3.21 6.71-.39 13.46 4.33 14.92 10.99.95 2.85.03 5.8-.52 8.63 1.17 1.7 2.41 3.38 3.27 5.28.58 3.27-.14 6.53-1.07 9.66-2.44 2.8-5.61 5.55-9.58 5.27-3.5.45-6.52-1.49-9.24-3.37-9.08 7.15-18.04 14.43-27.12 21.57 3.3-11.39 6.32-22.85 9.83-34.18-2.93-2.04-6.14-4.31-7.11-7.96-2.29-6.23 2.45-13.3 8.69-14.68 3.39-1.16 6.71.67 9.74 2z"/><path d="m253.01 252.05c3.44-.19 6.55-1.86 9.3-3.82 9.58 8.03 18.74 16.56 28.05 24.91-16.99 9.73-33.94 19.56-51.17 28.84-6.76-12.09-14.04-23.88-20.92-35.89 8.71-4.25 17.35-8.66 26.01-13.02 2.66-1.53 5.83-.65 8.73-1.02z"/><path d="m157.36 322.03c19.83-18.31 39.52-36.79 59.41-55.04 7.04 12 14.2 23.92 21.15 35.96-19.53 14.75-38.8 29.87-58.29 44.68-.83.52-1.66 1.05-2.49 1.58-6.44-9.17-13.24-18.09-19.78-27.18z"/><path d="m331.67 356.6c30.96-23.75 61.87-47.56 92.87-71.27-4.68 26.55-8.94 53.17-13.35 79.76-.27 2.85-2.6 4.7-4.4 6.66-6.27 6.4-12.52 12.81-18.87 19.12 1.14-.12 2.29-.26 3.44-.32 8.19-.04 16.34-.95 24.53-1.23 1.5 10.86 2.59 21.95 6.49 32.28 1.02 2.98 3.03 5.46 5.27 7.64-10.91 2-21.79 4.17-32.72 6.11-4.14.29-6.08 4.6-9.68 6.07-3 1.03-6.1-.5-7.21-3.43-3.77-8.53-4.77-17.95-7.07-26.92.06-.62.2-1.85.26-2.47-3.09 2.45-5.88 5.26-8.48 8.23-12.15 12.43-24.49 24.68-36.51 37.24-.04-8.06.97-16.07 1.22-24.12 1.46-24.45 2.85-48.9 4.21-73.35z"/><path d="m207.55 328.61c10.32-8.35 21.05-16.21 31.45-24.48 30.24 17.51 60.41 35.16 90.74 52.54-1.4 32.58-3.89 65.12-5.41 97.7-2.08-1.05-4.11-2.2-5.94-3.63-36.99-26.16-74.07-52.21-111.02-78.43.16-14.56-.24-29.15.18-43.7z"/><path d="m155.32 337.39c1.57-.38 3.45.88 3.34 2.57.58 2.5-3.25 3.9-4.75 2.06-1.49-1.35-.56-4.39 1.41-4.63z"/><path d="m427.34 343.26c3.98-2.77 9.89 1.15 9.33 5.8-.11 4.5-5.84 7.48-9.53 4.81-4.13-2.07-3.75-8.55.2-10.61z"/><path d="m219.3 433.33c3.32-.85 4.54 4.35 1.3 5.36-3.35 1-5.01-4.83-1.3-5.36z"/></g><g fill="#eaeaea"><path d="m241.82 104.91c19.6-5.65 40.03-7.49 60.32-8.05 13.35.91 26.75 1.64 39.94 4.11 6.74 1.42 13.39 3.21 20.08 4.87 10.07 3.42 20.22 6.76 29.77 11.5 14.71 5.86 28.12 14.59 40.9 23.86 8.27 5.94 15.59 13.04 23.27 19.7 10.58 11.22 20.77 22.93 29.08 35.99 4.37 5.93 7.48 12.61 11.19 18.95 1.56 3.36 3.32 6.61 4.87 9.98 4.43 10.17 8.88 20.41 11.7 31.18 3.97 15.73 7.06 31.75 7.84 47.98 1.09 8.95 1.09 18.01 0 26.96-.6 12.53-2.68 24.95-5.42 37.17-2.06 11.93-6.42 23.3-10.76 34.54.37 1.35 1.7 2.19 2.85 2.88 7.4 3.75 14.23 8.5 21.54 12.42 5.85 3.57 12.09 6.52 17.73 10.42 2.86 3.55 4.39 8.1 4.64 12.65-.62 1.59-1.02 3.24-1.61 4.84-1.44 4.68-5.34 7.79-9.9 9.19-2.92.65-5.86.9-8.75.03-6.27-2.52-11.67-6.65-17.64-9.75-7.73-4.6-15.78-8.63-23.43-13.37-5.68-3.37-11.35-7.15-17.88-8.59-4.5.78-8.88 2.49-12.33 5.55-2.78 3.44-4.96 7.53-5.59 11.95.73 3.5 2.04 6.92 4.01 9.91 3.09 4.82 8.8 6.68 13.32 9.81 14.04 7.93 28.11 15.8 41.93 24.12 4.03 2.51 7.23 6.08 10.63 9.35-39.08.69-78.18.07-117.27.31-.17 2.26-.22 4.54.1 6.8 9.29 1.4 18.7.21 28.04.68 27.34-.62 54.67 1.56 81.99.37 3.51-.09 7.03-.02 10.54.02 1.48 3.73 2.2 7.69 2.78 11.65.06 10.38-4.99 20.13-11.99 27.55-4.65 3.86-10.2 6.54-16.14 7.7-4.05.19-8.08 2.47-12.06.7-4.54-.62-9.14-1.41-13.22-3.62-4.33-2.37-8.47-5.05-12.75-7.5-5.76-3.14-11.2-6.83-16.95-9.99-1.43-.79-2.87-1.55-4.29-2.31 14.05-.68 28.12.08 42.17-.44 10.89-.44 21.8.22 32.69-.41.12-2.63 1.36-5.65-.3-8.01-4.29-1.58-9.02-.66-13.5-.84-26.53-.12-53.08.28-79.6-.2-4.24-2.15-8.23-4.74-12.42-6.97-4.87 1.81-9.18 5.07-14.04 7.02-62.98.4-125.97-.02-188.95.22-2.63-.03-5.26-.24-7.84-.71-6.77-4.78-14.55-7.95-21.29-12.81 13.38-.86 26.81-.15 40.21-.36 12.34.35 24.65-1.16 37-.54 20.32.95 40.67.02 61 .36 3.93.12 7.85-.26 11.69-1.1-.44-2.37-.84-4.75-1.19-7.13-51.18-.38-102.37.02-153.56-.2-3.9.05-7.77.62-11.67.47.52-.53 1.04-1.07 1.56-1.59-9.4-7.87-19.12-15.49-27.2-24.79-20.42-22.09-36.24-48.32-46.54-76.56l-.28-.56c-.92-3.08-1.93-6.13-3.01-9.16-.92-3.67-2.07-7.29-2.97-10.97-.31-1.67-.61-3.34-.94-5-.38-1.67-.69-3.34-1-5.01-.74-4-1.32-8.03-2.02-12.03-1.35-7.94-1.28-15.99-2.04-23.97-.16-2.71 0-5.43-.33-8.12-2.4-2.3-5.66-3.37-8.32-5.32-.52-.22-1.56-.66-2.08-.88-2.3-1.39-4.66-2.67-6.93-4.09-7.67-4.07-15.25-8.47-22.21-13.69-6.02-5.77-10.06-13.83-10.93-22.13-1.27-6.67.52-13.58 3-19.79 4.65-9.51 13.63-16.76 23.96-19.19 4.22-.85 8.58-2.01 12.87-.9 5.48.76 10.6 3.04 15.35 5.79 5.42 3.21 10.96 6.23 16.4 9.43 7.99 5.13 18.44 5.95 27.27 2.56 8.85-3.25 14.96-11.32 18.13-19.94.22-1.64.54-3.26.97-4.86.51-1.61.3-3.31-.04-4.92-.58-2.7-1.28-5.37-1.94-8.04-1.65-3.8-4.04-7.22-6.62-10.44-4.36-3.88-9.67-6.43-14.61-9.46-16.26-9.86-33.09-18.72-49.26-28.74-3.67-2.31-7.87-3.91-11.03-6.95-4.6-6.3-4.07-15.1.47-21.3 5.09-4.62 13.21-6.31 19.44-2.77 9.86 6.07 20.3 11.09 30.11 17.24 10.41 6.41 21.15 12.26 31.85 18.15 8.11 4.97 16.35 9.74 24.68 14.35 3.73 2.02 8.1 2.35 12.14 1.16 4.64-2.14 8.66-5.38 11.01-10 .32-1.39.69-2.77 1.08-4.15.29-2.02.16-4.05-.39-6.01-.14-.57-.43-1.73-.57-2.31-2.38-4.35-5.83-8.21-10.38-10.36-5.49-2.67-10.22-6.89-16.1-8.71.41-.01 1.25-.02 1.67-.02l-.01-.94c9.26-5.88 18.11-12.49 27.98-17.37 14.82-7.59 30.32-13.91 46.33-18.5m37.6 6.75c-5.41 1.43-7.13 9.2-2.62 12.65 3.75 3.8 10.49 1.35 11.84-3.55 1.91-5.3-4.02-10.78-9.22-9.1m147.25 32.87c0 2.72.02 5.45.02 8.18-2.73-.04-5.46-.06-8.18-.08.02.91.06 2.73.08 3.65 2.69-.01 5.38-.04 8.08-.08 0 2.73.01 5.45.01 8.18.9-.01 2.71-.02 3.61-.03-.01-2.7-.01-5.39-.01-8.09 2.87.17 5.75.02 8.58-.56-.48-.96-.27-2.48-1.39-2.98-2.41-.2-4.82-.09-7.22-.05.02-2.7.03-5.4.05-8.1-1.22-.01-2.43-.03-3.63-.04m-184.33 61.66c-1.49 3.67-.96 7.7-.97 11.56-4.87 3.57-9.07 8.86-8.93 15.2-.47 7.78 4.57 15.05 11.58 18.16-7.43 3.5-14.6 7.51-22 11.06-2.58 1.29-5.33 2.41-7.45 4.42-19.75 18.54-39.88 36.68-59.53 55.32 7.3 9.94 14.57 19.91 21.86 29.86 9.75-3.42 19.15-7.77 28.64-11.83.18 11.06.05 22.12.07 33.18 39.67 28.49 79.83 56.29 119.56 84.7 15.03-15.81 30.35-31.35 45.8-46.75 2.3 8.97 3.3 18.39 7.07 26.92 1.11 2.93 4.21 4.46 7.21 3.43-.81.4-1.63.78-2.46 1.16 5.12.23 10.28.18 15.31-.87 10.7-2.04 21.31-4.54 31.96-6.81 5.62-1.06 9.84-5.26 14.06-8.79-5.51.93-10.98 2.11-16.47 3.13-2.24-2.18-4.25-4.66-5.27-7.64-3.9-10.33-4.99-21.42-6.49-32.28-8.19.28-16.34 1.19-24.53 1.23 6.07-7.87 13.96-14.17 20.47-21.67 1.03-1.75.99-3.91 1.43-5.85 4.41-27.02 9.37-53.96 13.54-81.02-7.53-2.77-14.77-6.28-22.29-9.07 0-.24.02-.72.02-.96 3.38-3.19 3.85-8.11 2.93-12.43l-.46 1.14c.11-2.54-1.49-4.59-2.69-6.67.33-3.29.93-6.74-.22-9.93-2.02-6.32-8.37-11.11-15.07-10.86-3.32-.26-6.36 1.18-9.2 2.69-2.22-.72-4.42-1.71-6.79-1.73-7.05-.44-13.66 5.75-13.86 12.77-.22 2.6.8 5.05 1.62 7.46-6.26-2.98-12.78-5.35-19.07-8.28.77-.47 2.31-1.43 3.07-1.91-6.6-11.14-13.17-22.3-19.78-33.43-7.74 3.27-15.12 7.31-22.57 11.18 2.57-7.78.1-17.08-6.91-21.66-4.7-3.71-10.95-3.46-16.53-2.61-4.49-3.72-10.06-6.43-16-6.26-9.08-.04-17.55 6.32-20.66 14.74m206.02 10.36c-4.41.82-8.16 4.86-8.19 9.43-.53 5.84 5.07 11.19 10.87 10.56 6.2-.36 10.92-7.44 8.69-13.29-1.54-4.59-6.57-7.7-11.37-6.7m-296.72 6.81c-1.89-.01-4.16-.46-4.76 1.92 1.76.12 3.53.23 5.31.35 0 1.66.01 3.33.03 4.99.54-.02 1.62-.07 2.16-.1-.02-1.65-.04-3.29-.06-4.93 1.94-.12 3.88-.25 5.83-.41-1.18-2.18-3.56-1.85-5.63-1.89-.39-1.85.5-4.5-1.81-5.36-.42 1.79-.76 3.61-1.07 5.43m1.76 113c-2.34 1.47-2.87 5.04-.68 6.89 2.01 2.43 6.01 1.47 7.34-1.19 2.44-3.69-3.37-8.77-6.66-5.7m273.95 5.07c-5.2 1.99-6.66 9.79-1.93 13.1 4.22 3.96 11.85 1.14 12.7-4.5 1.18-5.77-5.32-11.26-10.77-8.6m-209.88 91.14c-3.7 2.35-.75 8.71 3.44 7.43 2.78-.63 3.05-3.61 3.23-5.94-1.8-1.66-4.38-3.59-6.67-1.49m127.65 63.37c.32 2.08-.63 5 1.6 6.28 3.9 1.26 8.17.77 12.08-.27-.13-2.03.05-4.15-.67-6.09-4.24-1.11-8.74-.7-13.01.08m43.25-.48c-1.58.73-3.09 2.68-2.34 4.48 1 3.68 7.09 4.1 8.83.84.1-1.32-.23-2.64-.83-3.79-.77-2.34-3.78-1.8-5.66-1.53z"/><path d="m308.55 264.86c10.53-5.68 20.7-12.06 31.35-17.46 6.37 2.46 12.53 5.47 18.92 7.91 2.82 1.01 5.41 2.53 7.76 4.39-2.22 6.66-4 13.47-6.02 20.2-1.56 5.79-3.72 11.44-4.6 17.39 10-7.81 19.85-15.82 29.76-23.76 4.9 4.19 11.8 3.7 17.11.64 3.25.87 6.22 2.51 9.33 3.77 4.05 1.86 8.37 3.14 12.14 5.56-22.53 16.74-44.49 34.22-66.96 51.03-16.36-9.78-33.42-18.39-49.86-28-.33-13.87.94-27.78 1.07-41.67z"/><path d="m300.22 269.68c2.11-1.29 4.26-2.53 6.43-3.72-.14 8.02-.2 16.04-.43 24.06-.59 5.71-.72 11.46-.67 17.21-8.47 6.24-17.33 11.94-25.64 18.39-12.97-7.46-25.95-14.92-38.86-22.48 16.98-9.57 33.95-19.16 50.87-28.85 3.95 3.58 7.77 7.31 11.89 10.69-1.19-5.1-2.31-10.22-3.59-15.3z"/><path d="m281.6 326.28c8.63-5.73 16.94-11.94 25.39-17.93 16.27 9.28 32.79 18.09 49.06 27.34-8.3 6.09-16.27 12.62-24.56 18.71-1.02.94-2.3-.16-3.28-.57-12.38-7.3-24.83-14.48-37.26-21.7-3.16-1.89-6.55-3.43-9.35-5.85z"/><path d="m228.95 527.85c5.64-1.2 11.4-.42 17.11-.56 15.3-.4 30.62.22 45.93 0 20.67.08 41.33-.19 62-.11 5.72-.11 11.45-.17 17.16.39-14.5 5.36-29.78 8.4-45.07 10.49-8.67 1.07-17.39 1.47-26.12 1.75-13.41-.34-26.75-1.8-40.01-3.75-6.75-1.42-13.41-3.23-20.11-4.86-3.6-1.25-7.35-1.97-10.89-3.35z"/></g><path d="m28.46 99.61c5.53-1.31 11.52.32 16.06 3.63 7.5 5.48 10.41 16.41 6.28 24.8-3.88 8.72-14.55 13.6-23.68 10.9-10.23-2.48-17.33-14.07-14.37-24.27 1.74-7.49 8.14-13.65 15.71-15.06z" fill="#efeef1"/><path d="m574.48 441.68c10.68-2.5 22.31 5.54 23.76 16.42 1.99 10.06-5.13 20.82-15.15 22.94-10.59 3.13-22.65-4.67-24.52-15.48-2.6-10.62 5.22-22.03 15.91-23.88z" fill="#efeef1"/><path d="m279.42 111.66c5.2-1.68 11.13 3.8 9.22 9.1-1.35 4.9-8.09 7.35-11.84 3.55-4.51-3.45-2.79-11.22 2.62-12.65m-.15 1.7c-1.89.84-3.22 2.6-3.77 4.56-.25 2.86 1.87 5.46 4.42 6.49 3.8 1.08 7.85-2.53 7.41-6.39-.28-3.65-4.75-6.29-8.06-4.66z" fill="#9e9e9e"/><path d="m405.68 259.87c.22.49.66 1.49.88 1.98.11-.29.33-.87.44-1.16l.46-1.14c.92 4.32.45 9.24-2.93 12.43.02-.61.06-1.83.08-2.45.93-3.13 1.65-6.39 1.07-9.66z" fill="#9e9e9e"/><path d="m427.35 341.43c5.45-2.66 11.95 2.83 10.77 8.6-.85 5.64-8.48 8.46-12.7 4.5-4.73-3.31-3.27-11.11 1.93-13.1m-.01 1.83c-3.95 2.06-4.33 8.54-.2 10.61 3.69 2.67 9.42-.31 9.53-4.81.56-4.65-5.35-8.57-9.33-5.8z" fill="#9e9e9e"/><path d="m217.47 432.57c2.29-2.1 4.87-.17 6.67 1.49-.18 2.33-.45 5.31-3.23 5.94-4.19 1.28-7.14-5.08-3.44-7.43m1.83.76c-3.71.53-2.05 6.36 1.3 5.36 3.24-1.01 2.02-6.21-1.3-5.36z" fill="#9e9e9e"/><path d="m242.34 206.19c3.11-8.42 11.58-14.78 20.66-14.74 5.94-.17 11.51 2.54 16 6.26 5.58-.85 11.83-1.1 16.53 2.61 7.01 4.58 9.48 13.88 6.91 21.66 7.45-3.87 14.83-7.91 22.57-11.18 6.61 11.13 13.18 22.29 19.78 33.43-.76.48-2.3 1.44-3.07 1.91 6.29 2.93 12.81 5.3 19.07 8.28-.82-2.41-1.84-4.86-1.62-7.46.2-7.02 6.81-13.21 13.86-12.77 2.37.02 4.57 1.01 6.79 1.73 2.84-1.51 5.88-2.95 9.2-2.69 6.7-.25 13.05 4.54 15.07 10.86 1.15 3.19.55 6.64.22 9.93 1.2 2.08 2.8 4.13 2.69 6.67-.11.29-.33.87-.44 1.16-.22-.49-.66-1.49-.88-1.98-.86-1.9-2.1-3.58-3.27-5.28.55-2.83 1.47-5.78.52-8.63-1.46-6.66-8.21-11.38-14.92-10.99-3.01.19-5.62 1.81-8.19 3.21-3.03-1.33-6.35-3.16-9.74-2-6.24 1.38-10.98 8.45-8.69 14.68.97 3.65 4.18 5.92 7.11 7.96-3.51 11.33-6.53 22.79-9.83 34.18 9.08-7.14 18.04-14.42 27.12-21.57 2.72 1.88 5.74 3.82 9.24 3.37 3.97.28 7.14-2.47 9.58-5.27-.02.62-.06 1.84-.08 2.45 0 .24-.02.72-.02.96 7.52 2.79 14.76 6.3 22.29 9.07-4.17 27.06-9.13 54-13.54 81.02-.44 1.94-.4 4.1-1.43 5.85-6.51 7.5-14.4 13.8-20.47 21.67-1.15.06-2.3.2-3.44.32 6.35-6.31 12.6-12.72 18.87-19.12 1.8-1.96 4.13-3.81 4.4-6.66 4.41-26.59 8.67-53.21 13.35-79.76-31 23.71-61.91 47.52-92.87 71.27-1.36 24.45-2.75 48.9-4.21 73.35-.25 8.05-1.26 16.06-1.22 24.12 12.02-12.56 24.36-24.81 36.51-37.24 2.6-2.97 5.39-5.78 8.48-8.23-.06.62-.2 1.85-.26 2.47-15.45 15.4-30.77 30.94-45.8 46.75-39.73-28.41-79.89-56.21-119.56-84.7-.02-11.06.11-22.12-.07-33.18-9.49 4.06-18.89 8.41-28.64 11.83-7.29-9.95-14.56-19.92-21.86-29.86 19.65-18.64 39.78-36.78 59.53-55.32 2.12-2.01 4.87-3.13 7.45-4.42 7.4-3.55 14.57-7.56 22-11.06-7.01-3.11-12.05-10.38-11.58-18.16-.14-6.34 4.06-11.63 8.93-15.2.01-3.86-.52-7.89.97-11.56m9.37-9.53c-6.86 4.59-10.55 13.68-8.33 21.71-3.76 2.61-7.4 5.88-8.64 10.47-3.12 8.79 3.13 19.18 12.15 21.03 5.43 1.49 11.05-.62 15.25-4.07 13.12 11.12 25.56 23.02 38.62 34.19-3.73-16.09-7.27-32.24-11.23-48.28 7.81-3 13.75-11.36 11.58-19.88-1.96-9.79-13.36-15.86-22.6-12.03-6.69-7.19-18.71-8.91-26.8-3.14m50.38 27.42c-3.31 2.83-5.79 6.71-10.02 8.39 2.14 11.91 5.35 23.6 7.83 35.44 14.04-8.13 28.17-16.1 42.35-24-5.74-10.49-12.22-20.55-18.16-30.92-7.32 3.72-14.67 7.39-22 11.09m6.46 40.78c-.13 13.89-1.4 27.8-1.07 41.67 16.44 9.61 33.5 18.22 49.86 28 22.47-16.81 44.43-34.29 66.96-51.03-3.77-2.42-8.09-3.7-12.14-5.56-3.11-1.26-6.08-2.9-9.33-3.77-5.31 3.06-12.21 3.55-17.11-.64-9.91 7.94-19.76 15.95-29.76 23.76.88-5.95 3.04-11.6 4.6-17.39 2.02-6.73 3.8-13.54 6.02-20.2-2.35-1.86-4.94-3.38-7.76-4.39-6.39-2.44-12.55-5.45-18.92-7.91-10.65 5.4-20.82 11.78-31.35 17.46m-55.54-12.81c-2.9.37-6.07-.51-8.73 1.02-8.66 4.36-17.3 8.77-26.01 13.02 6.88 12.01 14.16 23.8 20.92 35.89 17.23-9.28 34.18-19.11 51.17-28.84-9.31-8.35-18.47-16.88-28.05-24.91-2.75 1.96-5.86 3.63-9.3 3.82m-95.65 69.98c6.54 9.09 13.34 18.01 19.78 27.18.83-.53 1.66-1.06 2.49-1.58 19.49-14.81 38.76-29.93 58.29-44.68-6.95-12.04-14.11-23.96-21.15-35.96-19.89 18.25-39.58 36.73-59.41 55.04m142.86-52.35c1.28 5.08 2.4 10.2 3.59 15.3-4.12-3.38-7.94-7.11-11.89-10.69-16.92 9.69-33.89 19.28-50.87 28.85 12.91 7.56 25.89 15.02 38.86 22.48 8.31-6.45 17.17-12.15 25.64-18.39-.05-5.75.08-11.5.67-17.21.23-8.02.29-16.04.43-24.06-2.17 1.19-4.32 2.43-6.43 3.72m-92.67 58.93c-.42 14.55-.02 29.14-.18 43.7 36.95 26.22 74.03 52.27 111.02 78.43 1.83 1.43 3.86 2.58 5.94 3.63 1.52-32.58 4.01-65.12 5.41-97.7-30.33-17.38-60.5-35.03-90.74-52.54-10.4 8.27-21.13 16.13-31.45 24.48m74.05-2.33c2.8 2.42 6.19 3.96 9.35 5.85 12.43 7.22 24.88 14.4 37.26 21.7.98.41 2.26 1.51 3.28.57 8.29-6.09 16.26-12.62 24.56-18.71-16.27-9.25-32.79-18.06-49.06-27.34-8.45 5.99-16.76 12.2-25.39 17.93m-98.29 20.9c7.62-2.5 14.76-6.27 22.29-9.06.01-2.74-.01-5.48-.11-8.21-7.22 5.98-14.91 11.36-22.18 17.27z" fill="#7b7b7b"/><path d="m153.4 336.36c3.29-3.07 9.1 2.01 6.66 5.7-1.33 2.66-5.33 3.62-7.34 1.19-2.19-1.85-1.66-5.42.68-6.89m1.92 1.03c-1.97.24-2.9 3.28-1.41 4.63 1.5 1.84 5.33.44 4.75-2.06.11-1.69-1.77-2.95-3.34-2.57z" fill="#7b7b7b"/><path d="m448.36 216.55c4.8-1 9.83 2.11 11.37 6.7 2.23 5.85-2.49 12.93-8.69 13.29-5.8.63-11.4-4.72-10.87-10.56.03-4.57 3.78-8.61 8.19-9.43m.04 1.95c-6.24 1.06-8.47 9.81-3.81 13.91 4.07 4.12 11.84 2.08 13.42-3.46 2.21-5.69-3.83-11.97-9.61-10.45z" fill="#8b8b8b"/><path d="m151.64 223.36c.31-1.82.65-3.64 1.07-5.43 2.31.86 1.42 3.51 1.81 5.36 2.07.04 4.45-.29 5.63 1.89-1.95.16-3.89.29-5.83.41.02 1.64.04 3.28.06 4.93-.54.03-1.62.08-2.16.1-.02-1.66-.03-3.33-.03-4.99-1.78-.12-3.55-.23-5.31-.35.6-2.38 2.87-1.93 4.76-1.92z" fill="#7a7a7a"/><path d="m183.31 347.18c7.27-5.91 14.96-11.29 22.18-17.27.1 2.73.12 5.47.11 8.21-7.53 2.79-14.67 6.56-22.29 9.06z" fill="#ededed"/><path d="m427.65 429.24c5.49-1.02 10.96-2.2 16.47-3.13-4.22 3.53-8.44 7.73-14.06 8.79-10.65 2.27-21.26 4.77-31.96 6.81-5.03 1.05-10.19 1.1-15.31.87.83-.38 1.65-.76 2.46-1.16 3.6-1.47 5.54-5.78 9.68-6.07 10.93-1.94 21.81-4.11 32.72-6.11z" fill="#848484"/><path d="m163.3 495.77c3.9.15 7.77-.42 11.67-.47 51.19.22 102.38-.18 153.56.2.35 2.38.75 4.76 1.19 7.13-3.84.84-7.76 1.22-11.69 1.1-20.33-.34-40.68.59-61-.36-12.35-.62-24.66.89-37 .54-13.4.21-26.83-.5-40.21.36-33.24-.87-66.52.23-99.77-.32-5.59-.29-11.56.92-16.77-1.72-.01-1.1-.01-2.19 0-3.28.91-.74 1.81-1.49 2.7-2.25 17.34-.04 34.68-.3 52.02-.37 15.11.08 30.18-1.01 45.3-.56z" fill="#cbcbcb"/><path d="m406.85 495.37c39.09-.24 78.19.38 117.27-.31 5.27 0 10.55.23 15.81.53 3.07.16 6.29 4.21 2.99 6.46-4.83 1.84-10.32.67-15.4 1.19-3.51-.04-7.03-.11-10.54-.02-27.32 1.19-54.65-.99-81.99-.37-9.34-.47-18.75.72-28.04-.68-.32-2.26-.27-4.54-.1-6.8z" fill="#cbcbcb"/><path d="m345.12 495.94c4.27-.78 8.77-1.19 13.01-.08.72 1.94.54 4.06.67 6.09-3.91 1.04-8.18 1.53-12.08.27-2.23-1.28-1.28-4.2-1.6-6.28z" fill="#ccc"/><path d="m388.37 495.46c1.88-.27 4.89-.81 5.66 1.53.6 1.15.93 2.47.83 3.79-1.74 3.26-7.83 2.84-8.83-.84-.75-1.8.76-3.75 2.34-4.48z" fill="#ccc"/><path d="m201.11 517.08c2.58.47 5.21.68 7.84.71 62.98-.24 125.97.18 188.95-.22 8.81.19 17.64.3 26.46-.05 26.52.48 53.07.08 79.6.2 4.48.18 9.21-.74 13.5.84 1.66 2.36.42 5.38.3 8.01-10.89.63-21.8-.03-32.69.41-14.05.52-28.12-.24-42.17.44-14.94-.57-29.92-.14-44.87-.19-8.96.21-17.94-.5-26.88.34-5.71-.56-11.44-.5-17.16-.39-20.67-.08-41.33.19-62 .11-15.31.22-30.63-.4-45.93 0-5.71.14-11.47-.64-17.11.56-1.96-.34-3.94-.67-5.93-.67-18.68-.07-37.36.09-56.03-.25-4.15 0-8.31 0-12.43-.58-.39-2.21-.96-4.42-.86-6.68 7.75-.74 15.59-.13 23.37-.56 7.69-.96 15.48.05 23.18-.69.21-.34.64-1.01.86-1.34z" fill="#cdcdcd"/><path d="m93.62 519.48c17.55-.39 35.13-.35 52.68.07-.02 1.94-.08 3.89-.06 5.84-1.02.47-1.91 1.34-3.08 1.42-12.7.45-25.41.36-38.11.32-3.86-.15-8.25.9-11.57-1.63.07-2.01.09-4.02.14-6.02z" fill="#cdcdcd"/><path d="m336.23 544.28c3.84-1.46 8.89 2.69 7.05 6.83-1.61 3.63-6.9 3.99-9.27.97-2.29-2.47-.68-6.62 2.22-7.8z" fill="#cdcdcd"/><path d="m295.43 552.23c-.11-2.16-.14-4.31-.11-6.46 6.53.01 13.16-.55 19.62.29 1.02 1.93-.38 4.25-.47 6.33-6.29 1.04-12.74.64-19.04-.16z" fill="#cdcdcd"/><path d="m147.45 546.51c10.4-1.43 21-.64 31.49-.79 32.71-.08 65.42.1 98.13.11 4.69-.71 5.78 6.99 1.08 7.41-28.07.38-56.14.18-84.22.33-15.02-.2-30.07.32-45.06-.78-3.52.31-4.88-5.17-1.42-6.28z" fill="#cacaca"/></svg>