<?xml version="1.0" encoding="UTF-8" ?>
<!DOCTYPE svg PUBLIC "-//W3C//DTD SVG 1.1//EN" "http://www.w3.org/Graphics/SVG/1.1/DTD/svg11.dtd">
<svg width="600pt" height="600pt" viewBox="0 0 600 600" version="1.1" xmlns="http://www.w3.org/2000/svg">
<g id="#c9c9c9fe">
<path fill="#c9c9c9" opacity="1.00" d=" M 286.53 4.53 C 287.52 2.14 290.02 2.21 292.19 2.42 C 294.81 6.25 293.29 11.09 293.67 15.40 C 297.40 15.50 301.21 14.94 304.89 15.72 C 305.87 16.74 306.69 17.89 307.55 19.01 C 306.57 20.18 305.77 21.56 304.49 22.42 C 300.90 22.87 297.27 22.53 293.67 22.59 C 293.56 26.22 293.98 29.90 293.43 33.51 C 292.03 36.53 288.18 36.15 286.39 33.74 C 286.27 30.03 286.32 26.32 286.32 22.61 C 282.83 22.61 279.34 22.63 275.85 22.63 C 275.25 22.21 274.04 21.37 273.44 20.95 C 273.40 19.54 273.40 18.14 273.44 16.74 C 277.27 14.24 282.05 15.75 286.33 15.38 C 286.42 11.76 286.03 8.11 286.53 4.53 Z" />
<path fill="#c9c9c9" opacity="1.00" d=" M 396.07 32.99 C 404.00 30.69 412.91 37.77 412.49 45.99 C 412.54 53.68 404.68 60.48 397.08 58.96 C 391.10 57.86 385.99 52.23 386.18 46.03 C 385.70 39.99 390.45 34.55 396.07 32.99 M 397.50 34.78 C 394.90 35.30 392.38 36.58 390.67 38.64 C 386.84 43.00 387.39 50.44 391.88 54.14 C 397.25 59.25 407.41 56.93 409.72 49.74 C 413.18 42.18 405.47 33.19 397.50 34.78 Z" />
<path fill="#c9c9c9" opacity="1.00" d=" M 541.73 105.94 C 542.95 102.98 547.07 102.58 548.57 105.54 C 549.05 109.19 548.65 112.90 548.74 116.57 C 552.67 116.92 556.85 115.82 560.55 117.52 C 556.52 117.73 552.50 118.01 548.48 118.36 C 552.44 118.74 556.41 119.10 560.38 119.53 C 560.00 120.15 559.25 121.41 558.88 122.04 C 555.48 122.17 552.09 122.31 548.69 122.49 C 552.63 122.79 556.57 123.05 560.51 123.36 C 556.80 125.02 552.65 124.01 548.73 124.34 C 548.75 128.06 548.91 131.79 548.52 135.50 C 548.11 131.61 547.78 127.71 547.52 123.81 C 547.42 126.86 547.51 129.95 546.84 132.95 C 546.69 134.42 545.62 135.19 544.19 135.19 C 543.49 131.46 543.45 127.66 543.28 123.88 C 543.14 128.04 543.03 132.20 542.96 136.37 C 540.19 132.98 541.98 128.27 541.57 124.26 C 538.14 124.27 534.70 124.27 531.28 124.34 C 530.13 123.06 527.90 121.95 528.46 119.89 C 528.38 118.35 530.01 117.56 531.07 116.77 C 534.54 116.38 538.05 116.69 541.54 116.64 C 541.63 113.08 541.18 109.47 541.73 105.94 Z" />
<path fill="#c9c9c9" opacity="1.00" d=" M 279.34 176.62 C 281.98 175.85 284.66 175.20 287.35 174.63 C 285.32 175.95 283.26 177.23 281.25 178.58 C 280.59 177.94 279.96 177.28 279.34 176.62 Z" />
<path fill="#c9c9c9" opacity="1.00" d=" M 288.65 174.57 C 291.34 175.19 294.00 175.88 296.65 176.64 C 296.02 177.30 295.39 177.95 294.74 178.59 C 292.73 177.23 290.68 175.91 288.65 174.57 Z" />
<path fill="#c9c9c9" opacity="1.00" d=" M 277.04 179.12 C 277.77 179.06 279.21 178.94 279.94 178.88 C 278.62 181.01 277.33 183.17 276.01 185.31 C 276.34 183.24 276.70 181.18 277.04 179.12 Z" />
<path fill="#c9c9c9" opacity="1.00" d=" M 296.55 180.14 C 297.12 179.54 297.70 178.96 298.30 178.38 C 299.66 182.41 301.60 186.75 300.22 191.04 C 298.24 198.24 288.94 202.55 282.35 198.70 C 278.40 196.96 275.79 193.07 275.76 188.75 C 277.85 192.34 279.83 196.60 284.06 198.08 C 291.25 201.19 299.80 194.61 299.76 187.08 C 299.72 184.42 297.98 182.23 296.55 180.14 Z" />
<path fill="#c9c9c9" opacity="1.00" d=" M 442.36 207.23 C 444.00 206.01 446.86 205.93 447.78 208.07 C 448.53 211.65 448.30 215.33 448.40 218.96 C 452.26 219.39 456.18 219.43 460.00 220.20 C 461.85 221.26 461.78 223.83 460.02 224.94 C 456.64 227.06 452.47 225.81 448.77 225.52 C 447.98 230.31 449.43 236.16 445.37 239.75 C 444.25 239.14 443.13 238.52 442.01 237.92 C 441.73 233.97 441.44 230.02 441.09 226.08 C 436.84 226.20 432.60 225.93 428.41 225.26 C 428.56 223.61 428.65 221.93 429.18 220.35 C 433.10 219.44 437.16 219.42 441.16 219.13 C 441.48 215.16 441.48 211.13 442.36 207.23 Z" />
<path fill="#c9c9c9" opacity="1.00" d=" M 145.68 242.46 C 148.89 239.48 153.54 237.48 157.88 239.10 C 163.32 240.52 167.63 245.48 167.14 251.29 C 165.13 247.39 163.50 242.59 159.01 240.90 C 154.65 238.46 149.96 241.33 145.68 242.46 Z" />
<path fill="#c9c9c9" opacity="1.00" d=" M 141.74 251.03 C 141.69 247.83 143.61 245.15 145.38 242.67 C 144.63 245.76 143.20 248.77 143.22 252.00 C 143.54 254.87 144.68 257.55 145.40 260.33 C 143.38 257.65 141.46 254.54 141.74 251.03 Z" />
<path fill="#c9c9c9" opacity="1.00" d=" M 287.28 246.34 C 296.11 245.05 305.07 245.75 313.96 245.63 C 320.33 245.53 326.55 247.05 332.77 248.21 C 375.69 254.25 415.25 276.90 445.03 307.98 C 448.49 311.64 452.74 315.05 454.16 320.09 C 456.42 327.39 451.54 336.44 443.88 337.86 C 439.93 338.43 436.68 335.56 434.16 332.92 C 420.92 318.51 405.65 305.86 388.53 296.33 C 358.62 279.06 323.32 270.95 288.89 274.44 C 248.00 278.57 209.38 298.55 180.95 328.00 C 177.80 331.42 173.13 334.79 168.29 332.66 C 161.51 329.52 157.67 320.17 161.39 313.42 C 162.29 311.43 163.61 309.67 165.07 308.06 C 189.18 283.43 218.93 263.90 252.02 253.78 C 263.50 250.15 275.46 248.50 287.28 246.34 M 289.46 248.68 C 247.14 252.72 206.91 271.99 175.93 300.87 C 171.87 304.85 167.33 308.45 164.02 313.13 C 159.96 319.16 163.17 328.46 169.98 330.82 C 174.09 331.94 177.09 328.27 179.74 325.78 C 208.70 296.30 247.63 275.83 289.11 272.33 C 306.70 271.01 324.59 271.53 341.82 275.60 C 378.07 283.44 410.82 304.05 435.82 331.16 C 438.14 333.57 441.19 336.66 444.89 335.23 C 450.68 332.81 454.12 325.18 451.33 319.37 C 449.34 315.09 445.62 312.00 442.51 308.56 C 416.25 281.71 382.75 261.62 346.08 252.93 C 327.56 248.76 308.41 246.48 289.46 248.68 Z" />
<path fill="#c9c9c9" opacity="1.00" d=" M 158.96 262.11 C 163.58 260.40 165.15 255.36 167.41 251.48 C 167.37 256.94 163.97 262.00 158.69 263.65 C 154.16 265.52 149.16 263.65 145.66 260.59 C 149.91 261.81 154.56 264.12 158.96 262.11 Z" />
<path fill="#c9c9c9" opacity="1.00" d=" M 120.17 315.10 C 121.10 312.71 124.94 312.73 125.81 315.14 C 126.57 318.71 126.32 322.39 126.41 326.01 C 130.26 326.44 134.16 326.45 137.97 327.17 C 140.41 328.40 139.49 332.17 137.03 332.71 C 133.57 333.43 130.02 333.30 126.50 333.43 C 126.36 337.20 126.59 341.07 125.60 344.75 C 124.23 346.64 121.80 346.67 120.45 344.75 C 119.39 341.03 119.55 337.11 119.19 333.29 C 115.41 333.12 111.40 333.72 107.80 332.34 C 105.79 331.36 106.47 328.94 107.29 327.38 C 111.10 326.40 115.11 326.79 118.95 325.95 C 120.04 322.44 119.38 318.67 120.17 315.10 Z" />
<path fill="#c9c9c9" opacity="1.00" d=" M 287.15 317.14 C 304.49 315.19 322.40 316.15 339.06 321.60 C 359.82 327.93 379.00 339.34 394.53 354.51 C 399.69 359.72 405.42 364.61 409.22 370.97 C 413.63 378.25 409.86 389.03 401.82 391.85 C 398.02 393.14 394.44 390.73 391.97 388.07 C 384.85 380.61 377.88 372.88 369.49 366.81 C 349.69 351.83 324.84 343.44 299.97 344.15 C 270.01 344.89 241.12 359.01 220.86 380.87 C 217.64 384.33 213.35 388.51 208.17 386.82 C 199.25 383.84 196.52 371.36 202.18 364.26 C 223.97 339.52 254.19 321.40 287.15 317.14 M 291.58 318.95 C 263.37 321.81 236.61 334.70 215.81 353.82 C 211.40 358.01 206.54 361.92 203.18 367.06 C 199.25 373.02 202.23 382.40 209.08 384.64 C 212.58 385.71 215.48 382.86 217.71 380.59 C 229.52 367.82 243.95 357.42 259.95 350.58 C 283.34 340.42 310.32 339.21 334.72 346.41 C 356.89 353.18 376.68 366.87 391.67 384.46 C 393.90 386.87 396.41 389.96 400.03 389.80 C 404.78 389.07 407.94 384.44 408.81 379.99 C 409.61 375.70 407.46 371.56 404.71 368.43 C 394.69 356.74 382.95 346.48 369.97 338.21 C 346.79 323.67 318.92 316.24 291.58 318.95 Z" />
<path fill="#c9c9c9" opacity="1.00" d=" M 476.32 330.33 C 482.91 325.91 492.84 329.52 495.34 336.96 C 498.07 343.19 494.25 350.96 487.97 353.18 C 482.08 355.88 474.76 352.85 471.83 347.23 C 475.63 349.53 479.27 353.46 484.13 352.75 C 490.84 352.29 496.22 345.25 494.51 338.66 C 493.25 333.44 488.13 329.95 482.99 329.41 C 477.27 329.97 472.07 334.85 471.63 340.68 C 471.50 342.78 471.75 344.87 471.83 346.98 C 468.86 341.29 470.75 333.63 476.32 330.33 Z" />
<path fill="#c9c9c9" opacity="1.00" d=" M 283.95 383.37 C 306.35 378.05 330.73 384.01 349.04 397.72 C 352.16 399.81 355.06 402.28 357.18 405.43 C 349.71 405.62 342.07 404.66 334.78 406.80 C 330.51 407.81 326.69 410.04 322.66 411.68 C 320.18 412.86 317.51 411.52 315.02 411.08 C 294.91 405.71 272.61 412.40 257.83 426.81 C 254.34 430.10 250.39 434.61 245.01 433.34 C 235.54 430.68 232.50 417.00 239.13 410.04 C 250.91 396.92 266.59 387.01 283.95 383.37 M 248.84 403.82 C 245.07 407.17 240.81 410.38 238.66 415.09 C 235.74 421.37 239.82 430.44 246.96 431.32 C 252.08 430.60 254.91 425.64 258.77 422.75 C 275.43 408.16 299.69 403.20 320.72 410.22 C 330.40 404.77 341.56 402.29 352.64 403.36 C 339.87 393.01 324.48 385.61 307.99 383.99 C 286.61 381.70 264.97 389.96 248.84 403.82 Z" />
<path fill="#c9c9c9" opacity="1.00" d=" M 344.24 415.23 C 361.31 412.35 378.69 423.39 384.97 439.20 C 389.62 450.59 388.30 464.22 381.50 474.49 C 374.75 485.62 361.99 492.68 349.00 492.70 C 328.94 492.35 311.23 474.00 311.35 453.97 C 310.91 435.35 325.75 417.75 344.24 415.23 M 342.53 417.71 C 323.35 421.76 309.49 442.91 314.66 462.06 C 318.86 479.88 337.78 493.73 356.12 489.68 C 375.95 485.90 390.30 463.69 384.30 444.14 C 379.71 426.55 360.61 413.56 342.53 417.71 Z" />
<path fill="#c9c9c9" opacity="1.00" d=" M 347.35 427.32 C 350.26 425.97 354.79 427.26 354.94 430.93 C 355.29 440.96 354.40 451.01 354.19 461.05 C 354.73 466.59 344.82 467.16 344.18 461.96 C 343.64 456.65 344.37 451.31 344.43 445.99 C 344.73 440.69 344.40 435.34 345.09 430.07 C 345.19 428.79 346.26 427.84 347.35 427.32 M 347.02 431.61 C 346.44 442.01 346.41 452.47 346.31 462.90 C 348.09 462.99 350.08 463.79 351.73 462.73 C 352.83 459.62 352.55 456.23 352.72 452.99 C 352.74 445.95 353.28 438.90 352.78 431.87 C 353.18 428.39 347.09 428.17 347.02 431.61 Z" />
<path fill="#c9c9c9" opacity="1.00" d=" M 294.09 449.07 C 298.12 447.69 303.18 447.60 306.66 450.35 C 308.18 453.65 307.62 457.54 308.26 461.08 C 308.62 465.79 310.98 469.94 312.68 474.24 C 313.44 475.48 312.17 476.61 311.46 477.49 C 307.77 481.30 302.38 483.88 296.99 482.98 C 288.21 481.58 280.93 472.90 281.96 463.91 C 282.71 457.18 287.78 451.31 294.09 449.07 M 285.39 460.14 C 280.54 469.93 290.72 482.31 301.16 480.67 C 304.85 480.11 307.76 477.57 310.51 475.26 C 306.86 468.08 305.22 460.07 305.52 452.03 C 298.04 447.84 288.42 452.57 285.39 460.14 Z" />
<path fill="#c9c9c9" opacity="1.00" d=" M 343.56 469.67 C 345.68 468.45 347.96 466.73 350.57 467.51 C 355.20 468.32 355.52 475.79 351.41 477.56 C 349.08 478.51 345.74 478.04 344.40 475.70 C 343.87 473.73 343.80 471.68 343.56 469.67 M 347.45 469.73 C 344.54 471.20 346.21 476.99 349.87 475.65 C 354.09 474.78 351.58 467.13 347.45 469.73 Z" />
<path fill="#c9c9c9" opacity="1.00" d=" M 72.46 516.62 C 73.56 516.15 74.67 515.48 75.93 515.58 C 102.65 515.57 129.37 515.58 156.09 515.58 C 170.60 515.80 185.14 515.12 199.62 515.93 L 197.71 516.35 C 193.49 516.82 189.25 516.93 185.01 516.89 C 147.49 516.64 109.97 517.16 72.46 516.62 Z" />
<path fill="#c9c9c9" opacity="1.00" d=" M 401.54 516.22 C 403.31 515.68 405.15 515.53 406.99 515.56 C 422.00 515.58 437.00 515.59 452.01 515.56 C 454.53 515.60 457.23 515.22 459.55 516.47 C 449.36 517.19 439.14 516.73 428.93 516.83 C 419.80 516.75 410.64 517.27 401.54 516.22 Z" />
<path fill="#c9c9c9" opacity="1.00" d=" M 201.40 515.94 C 208.92 516.94 216.50 516.45 224.06 516.52 C 251.39 516.73 278.72 516.22 306.05 516.85 C 330.35 516.71 354.66 517.15 378.95 516.66 C 385.78 516.75 392.62 516.87 399.43 516.32 L 399.78 516.48 C 402.25 517.97 405.20 517.98 407.99 517.94 C 422.34 517.63 436.69 517.99 451.04 517.70 C 454.40 517.54 457.73 518.31 460.70 519.89 C 452.32 522.25 443.56 520.97 434.98 521.23 C 408.32 521.48 381.67 520.72 355.01 521.24 C 336.34 521.18 317.67 521.45 299.00 521.05 C 276.34 521.35 253.66 521.33 231.00 521.07 C 213.33 521.60 195.66 520.82 177.99 521.26 C 148.66 521.04 119.34 521.13 90.00 521.06 C 84.44 520.99 78.52 522.36 73.29 519.79 C 73.17 519.31 72.92 518.34 72.80 517.85 C 113.19 517.78 153.58 517.81 193.96 517.84 C 195.44 517.77 196.92 517.63 198.38 517.40 C 199.00 517.10 200.23 516.49 200.85 516.18 C 200.98 516.12 201.26 516.00 201.40 515.94 Z" />
<path fill="#c9c9c9" opacity="1.00" d=" M 70.86 519.47 C 71.20 518.52 71.50 517.57 71.79 516.61 C 71.98 518.36 71.78 520.42 73.16 521.79 C 110.42 522.16 147.69 521.68 184.96 521.87 C 240.98 521.69 297.01 521.88 353.04 521.73 C 388.67 522.36 424.31 521.19 459.93 521.98 C 458.72 522.61 457.54 523.47 456.09 523.25 C 344.72 523.25 233.35 523.25 121.98 523.26 C 106.08 523.33 90.18 523.10 74.28 523.37 C 72.24 523.03 71.54 521.15 70.86 519.47 Z" />
<path fill="#c9c9c9" opacity="1.00" d=" M 495.15 519.14 C 497.07 518.74 499.03 518.70 500.99 518.69 C 514.32 518.78 527.66 518.80 541.00 518.67 C 543.36 518.64 545.77 518.90 547.97 519.86 C 547.16 523.02 543.59 522.49 541.08 522.64 C 527.05 522.46 513.01 522.58 498.98 522.58 C 496.95 522.71 492.90 521.79 495.15 519.14 Z" />
<path fill="#c9c9c9" opacity="1.00" d=" M 132.82 539.67 C 191.20 539.32 249.60 539.62 307.98 539.52 C 310.82 538.84 314.03 542.39 312.08 544.94 C 311.37 546.56 309.61 546.85 308.03 546.80 C 251.67 546.80 195.30 546.77 138.94 546.81 C 136.64 546.72 134.23 547.10 132.01 546.32 C 129.61 544.49 130.14 540.89 132.82 539.67 Z" />
<path fill="#c9c9c9" opacity="1.00" d=" M 449.36 543.14 C 449.55 541.43 451.39 540.74 452.49 539.68 C 481.50 539.80 510.53 539.82 539.55 539.67 C 540.62 540.72 542.45 541.40 542.65 543.09 C 543.04 544.89 541.52 546.14 540.57 547.42 C 510.87 547.43 481.18 547.46 451.48 547.41 C 450.53 546.13 448.97 544.93 449.36 543.14 Z" />
<path fill="#c9c9c9" opacity="1.00" d=" M 348.30 542.40 C 349.71 541.56 351.41 541.66 353.00 541.57 C 372.00 541.68 391.01 541.63 410.02 541.61 C 411.59 541.87 413.74 541.37 414.73 542.98 C 414.22 545.69 411.07 544.97 409.05 545.28 C 390.38 545.22 371.71 545.20 353.04 545.27 C 350.93 545.09 348.10 545.45 347.22 542.98 L 348.30 542.40 Z" />
<path fill="#c9c9c9" opacity="1.00" d=" M 63.40 565.96 C 62.89 563.42 65.59 561.47 67.91 561.71 C 84.80 561.68 101.68 561.75 118.56 561.68 C 119.51 562.53 120.44 563.41 121.36 564.31 C 121.36 564.91 121.37 566.12 121.38 566.73 C 120.47 567.61 119.55 568.48 118.62 569.35 C 101.73 569.27 84.84 569.34 67.95 569.32 C 65.97 569.54 63.33 568.17 63.40 565.96 Z" />
<path fill="#c9c9c9" opacity="1.00" d=" M 161.46 567.78 C 160.66 565.07 161.65 561.66 164.99 561.74 C 288.67 561.65 412.35 561.75 536.02 561.69 C 537.77 561.60 539.50 561.96 541.20 562.39 C 541.57 562.83 542.31 563.71 542.68 564.15 C 543.24 566.99 541.07 569.70 538.09 569.33 C 413.38 569.31 288.67 569.31 163.96 569.32 C 163.33 568.94 162.08 568.16 161.46 567.78 Z" />
</g>
<g id="#ecececff">
<path fill="#ececec" opacity="1.00" d=" M 56.61 13.90 C 58.80 9.10 63.35 4.67 69.03 5.34 C 74.07 5.16 77.79 9.18 80.13 13.19 C 80.46 15.55 80.54 17.93 80.45 20.31 C 78.99 23.71 76.81 27.05 73.20 28.43 C 67.29 31.39 59.58 27.87 57.26 21.85 C 55.98 19.40 56.59 16.54 56.61 13.90 Z" />
<path fill="#ececec" opacity="1.00" d=" M 104.79 74.48 C 109.06 71.80 114.19 71.30 119.10 71.73 C 128.17 73.18 135.88 78.49 142.48 84.60 C 149.11 90.60 155.93 96.44 161.76 103.25 C 177.44 118.91 193.13 134.57 208.83 150.22 C 218.05 159.15 233.37 160.07 243.94 152.97 C 250.58 148.67 255.38 141.56 256.59 133.71 C 258.80 123.56 254.20 112.76 246.46 106.11 C 246.29 105.73 245.95 104.98 245.78 104.60 C 274.15 97.35 303.97 95.80 332.91 100.27 C 384.07 107.56 432.07 134.07 465.95 173.02 C 499.55 210.77 519.48 260.47 520.82 311.02 C 521.78 319.01 520.59 326.99 520.42 334.98 C 519.90 343.05 518.64 351.04 517.33 359.01 C 516.61 361.71 518.76 363.71 520.45 365.48 C 528.99 373.96 537.46 382.51 545.99 391.01 C 549.11 394.01 551.82 397.62 553.00 401.85 C 556.56 411.93 550.91 423.95 541.42 428.48 C 533.55 432.49 523.16 431.40 516.56 425.42 C 513.54 422.76 510.35 419.68 506.11 419.38 C 499.75 418.47 493.40 422.96 491.73 429.08 C 489.54 434.93 491.37 441.89 495.78 446.22 C 500.84 451.50 506.08 456.61 511.06 461.97 C 517.09 468.32 519.56 477.66 517.99 486.22 C 516.39 494.10 511.82 502.07 504.07 505.20 C 493.99 507.51 483.83 503.46 475.14 498.61 C 470.32 496.05 466.07 492.60 461.96 489.04 C 457.87 486.27 453.51 483.92 449.19 481.54 C 438.41 490.76 427.31 499.68 415.11 506.98 C 410.10 510.46 404.23 512.56 399.43 516.32 C 392.62 516.87 385.78 516.75 378.95 516.66 C 354.66 517.15 330.35 516.71 306.05 516.85 C 278.72 516.22 251.39 516.73 224.06 516.52 C 216.50 516.45 208.92 516.94 201.40 515.94 C 201.10 515.90 200.51 515.83 200.21 515.79 C 199.20 514.85 198.10 514.03 196.88 513.42 C 143.30 485.07 102.35 433.78 86.88 375.14 C 76.79 336.54 77.17 295.27 88.31 256.94 C 87.09 255.12 85.31 253.82 83.63 252.46 C 73.08 244.05 63.16 234.88 53.32 225.67 C 46.79 218.36 39.48 211.35 35.59 202.16 C 30.57 190.63 26.55 177.51 30.41 165.02 C 34.10 153.85 44.79 146.37 55.92 143.85 C 60.62 143.07 65.35 143.06 70.04 143.85 C 75.95 145.37 81.76 147.72 86.32 151.89 C 93.36 158.10 99.61 165.16 106.47 171.56 C 114.90 180.01 130.23 178.99 137.51 169.56 C 141.60 164.48 142.60 157.02 139.66 151.15 C 137.32 146.14 132.69 142.89 128.80 139.16 C 120.00 130.96 111.42 122.47 103.81 113.13 C 99.75 108.24 97.18 102.33 95.74 96.17 C 95.56 93.09 95.58 90.01 95.72 86.93 C 97.20 81.91 100.06 77.04 104.79 74.48 M 279.34 176.62 C 279.96 177.28 280.59 177.94 281.25 178.58 C 283.26 177.23 285.32 175.95 287.35 174.63 C 284.66 175.20 281.98 175.85 279.34 176.62 M 288.65 174.57 C 290.68 175.91 292.73 177.23 294.74 178.59 C 295.39 177.95 296.02 177.30 296.65 176.64 C 294.00 175.88 291.34 175.19 288.65 174.57 M 277.04 179.12 C 276.70 181.18 276.34 183.24 276.01 185.31 C 277.33 183.17 278.62 181.01 279.94 178.88 C 279.21 178.94 277.77 179.06 277.04 179.12 M 296.55 180.14 C 297.98 182.23 299.72 184.42 299.76 187.08 C 299.80 194.61 291.25 201.19 284.06 198.08 C 279.83 196.60 277.85 192.34 275.76 188.75 C 275.79 193.07 278.40 196.96 282.35 198.70 C 288.94 202.55 298.24 198.24 300.22 191.04 C 301.60 186.75 299.66 182.41 298.30 178.38 C 297.70 178.96 297.12 179.54 296.55 180.14 M 442.36 207.23 C 441.48 211.13 441.48 215.16 441.16 219.13 C 437.16 219.42 433.10 219.44 429.18 220.35 C 428.65 221.93 428.56 223.61 428.41 225.26 C 432.60 225.93 436.84 226.20 441.09 226.08 C 441.44 230.02 441.73 233.97 442.01 237.92 C 443.13 238.52 444.25 239.14 445.37 239.75 C 449.43 236.16 447.98 230.31 448.77 225.52 C 452.47 225.81 456.64 227.06 460.02 224.94 C 461.78 223.83 461.85 221.26 460.00 220.20 C 456.18 219.43 452.26 219.39 448.40 218.96 C 448.30 215.33 448.53 211.65 447.78 208.07 C 446.86 205.93 444.00 206.01 442.36 207.23 M 145.68 242.46 C 149.96 241.33 154.65 238.46 159.01 240.90 C 163.50 242.59 165.13 247.39 167.14 251.29 C 167.63 245.48 163.32 240.52 157.88 239.10 C 153.54 237.48 148.89 239.48 145.68 242.46 M 141.74 251.03 C 141.46 254.54 143.38 257.65 145.40 260.33 C 144.68 257.55 143.54 254.87 143.22 252.00 C 143.20 248.77 144.63 245.76 145.38 242.67 C 143.61 245.15 141.69 247.83 141.74 251.03 M 287.28 246.34 C 275.46 248.50 263.50 250.15 252.02 253.78 C 218.93 263.90 189.18 283.43 165.07 308.06 C 163.61 309.67 162.29 311.43 161.39 313.42 C 157.67 320.17 161.51 329.52 168.29 332.66 C 173.13 334.79 177.80 331.42 180.95 328.00 C 209.38 298.55 248.00 278.57 288.89 274.44 C 323.32 270.95 358.62 279.06 388.53 296.33 C 405.65 305.86 420.92 318.51 434.16 332.92 C 436.68 335.56 439.93 338.43 443.88 337.86 C 451.54 336.44 456.42 327.39 454.16 320.09 C 452.74 315.05 448.49 311.64 445.03 307.98 C 415.25 276.90 375.69 254.25 332.77 248.21 C 326.55 247.05 320.33 245.53 313.96 245.63 C 305.07 245.75 296.11 245.05 287.28 246.34 M 158.96 262.11 C 154.56 264.12 149.91 261.81 145.66 260.59 C 149.16 263.65 154.16 265.52 158.69 263.65 C 163.97 262.00 167.37 256.94 167.41 251.48 C 165.15 255.36 163.58 260.40 158.96 262.11 M 120.17 315.10 C 119.38 318.67 120.04 322.44 118.95 325.95 C 115.11 326.79 111.10 326.40 107.29 327.38 C 106.47 328.94 105.79 331.36 107.80 332.34 C 111.40 333.72 115.41 333.12 119.19 333.29 C 119.55 337.11 119.39 341.03 120.45 344.75 C 121.80 346.67 124.23 346.64 125.60 344.75 C 126.59 341.07 126.36 337.20 126.50 333.43 C 130.02 333.30 133.57 333.43 137.03 332.71 C 139.49 332.17 140.41 328.40 137.97 327.17 C 134.16 326.45 130.26 326.44 126.41 326.01 C 126.32 322.39 126.57 318.71 125.81 315.14 C 124.94 312.73 121.10 312.71 120.17 315.10 M 287.15 317.14 C 254.19 321.40 223.97 339.52 202.18 364.26 C 196.52 371.36 199.25 383.84 208.17 386.82 C 213.35 388.51 217.64 384.33 220.86 380.87 C 241.12 359.01 270.01 344.89 299.97 344.15 C 324.84 343.44 349.69 351.83 369.49 366.81 C 377.88 372.88 384.85 380.61 391.97 388.07 C 394.44 390.73 398.02 393.14 401.82 391.85 C 409.86 389.03 413.63 378.25 409.22 370.97 C 405.42 364.61 399.69 359.72 394.53 354.51 C 379.00 339.34 359.82 327.93 339.06 321.60 C 322.40 316.15 304.49 315.19 287.15 317.14 M 476.32 330.33 C 470.75 333.63 468.86 341.29 471.83 346.98 C 471.75 344.87 471.50 342.78 471.63 340.68 C 472.07 334.85 477.27 329.97 482.99 329.41 C 488.13 329.95 493.25 333.44 494.51 338.66 C 496.22 345.25 490.84 352.29 484.13 352.75 C 479.27 353.46 475.63 349.53 471.83 347.23 C 474.76 352.85 482.08 355.88 487.97 353.18 C 494.25 350.96 498.07 343.19 495.34 336.96 C 492.84 329.52 482.91 325.91 476.32 330.33 M 283.95 383.37 C 266.59 387.01 250.91 396.92 239.13 410.04 C 232.50 417.00 235.54 430.68 245.01 433.34 C 250.39 434.61 254.34 430.10 257.83 426.81 C 272.61 412.40 294.91 405.71 315.02 411.08 C 317.51 411.52 320.18 412.86 322.66 411.68 C 326.69 410.04 330.51 407.81 334.78 406.80 C 342.07 404.66 349.71 405.62 357.18 405.43 C 355.06 402.28 352.16 399.81 349.04 397.72 C 330.73 384.01 306.35 378.05 283.95 383.37 M 344.24 415.23 C 325.75 417.75 310.91 435.35 311.35 453.97 C 311.23 474.00 328.94 492.35 349.00 492.70 C 361.99 492.68 374.75 485.62 381.50 474.49 C 388.30 464.22 389.62 450.59 384.97 439.20 C 378.69 423.39 361.31 412.35 344.24 415.23 M 294.09 449.07 C 287.78 451.31 282.71 457.18 281.96 463.91 C 280.93 472.90 288.21 481.58 296.99 482.98 C 302.38 483.88 307.77 481.30 311.46 477.49 C 312.17 476.61 313.44 475.48 312.68 474.24 C 310.98 469.94 308.62 465.79 308.26 461.08 C 307.62 457.54 308.18 453.65 306.66 450.35 C 303.18 447.60 298.12 447.69 294.09 449.07 Z" />
<path fill="#ececec" opacity="1.00" d=" M 548.48 118.36 C 552.50 118.01 556.52 117.73 560.55 117.52 L 561.39 117.48 C 561.75 119.45 561.72 121.45 561.34 123.42 L 560.51 123.36 C 556.57 123.05 552.63 122.79 548.69 122.49 C 552.09 122.31 555.48 122.17 558.88 122.04 C 559.25 121.41 560.00 120.15 560.38 119.53 C 556.41 119.10 552.44 118.74 548.48 118.36 Z" />
<path fill="#ececec" opacity="1.00" d=" M 543.28 123.88 C 543.45 127.66 543.49 131.46 544.19 135.19 C 545.62 135.19 546.69 134.42 546.84 132.95 C 547.51 129.95 547.42 126.86 547.52 123.81 C 547.78 127.71 548.11 131.61 548.52 135.50 L 548.52 135.59 C 547.83 136.11 546.44 137.13 545.74 137.65 C 544.78 137.28 543.85 136.85 542.96 136.37 C 543.03 132.20 543.14 128.04 543.28 123.88 Z" />
<path fill="#ececec" opacity="1.00" d=" M 347.02 431.61 C 347.09 428.17 353.18 428.39 352.78 431.87 C 353.28 438.90 352.74 445.95 352.72 452.99 C 352.55 456.23 352.83 459.62 351.73 462.73 C 350.08 463.79 348.09 462.99 346.31 462.90 C 346.41 452.47 346.44 442.01 347.02 431.61 Z" />
<path fill="#ececec" opacity="1.00" d=" M 347.45 469.73 C 351.58 467.13 354.09 474.78 349.87 475.65 C 346.21 476.99 344.54 471.20 347.45 469.73 Z" />
<path fill="#ececec" opacity="1.00" d=" M 71.79 516.61 L 72.46 516.62 C 109.97 517.16 147.49 516.64 185.01 516.89 C 189.25 516.93 193.49 516.82 197.71 516.35 C 198.49 516.31 200.06 516.23 200.85 516.18 C 200.23 516.49 199.00 517.10 198.38 517.40 C 196.92 517.63 195.44 517.77 193.96 517.84 C 153.58 517.81 113.19 517.78 72.80 517.85 C 72.92 518.34 73.17 519.31 73.29 519.79 C 78.52 522.36 84.44 520.99 90.00 521.06 C 119.34 521.13 148.66 521.04 177.99 521.26 C 195.66 520.82 213.33 521.60 231.00 521.07 C 253.66 521.33 276.34 521.35 299.00 521.05 C 317.67 521.45 336.34 521.18 355.01 521.24 C 381.67 520.72 408.32 521.48 434.98 521.23 C 443.56 520.97 452.32 522.25 460.70 519.89 C 457.73 518.31 454.40 517.54 451.04 517.70 C 436.69 517.99 422.34 517.63 407.99 517.94 C 405.20 517.98 402.25 517.97 399.78 516.48 C 400.22 516.42 401.10 516.28 401.54 516.22 C 410.64 517.27 419.80 516.75 428.93 516.83 C 439.14 516.73 449.36 517.19 459.55 516.47 L 459.86 516.45 C 460.22 517.10 460.94 518.41 461.30 519.06 C 460.88 520.02 460.49 520.99 460.13 521.99 L 459.93 521.98 C 424.31 521.19 388.67 522.36 353.04 521.73 C 297.01 521.88 240.98 521.69 184.96 521.87 C 147.69 521.68 110.42 522.16 73.16 521.79 C 71.78 520.42 71.98 518.36 71.79 516.61 Z" />
<path fill="#ececec" opacity="1.00" d=" M 493.56 523.31 C 491.32 520.91 492.53 516.96 495.88 516.69 C 512.30 516.59 528.73 516.69 545.16 516.64 C 547.39 516.56 550.20 518.41 549.60 520.93 C 549.24 521.63 548.54 523.02 548.18 523.72 C 547.80 523.64 547.04 523.50 546.65 523.42 L 546.57 524.32 C 541.84 524.22 537.10 524.22 532.36 524.31 L 532.62 523.72 C 531.56 523.72 529.44 523.72 528.38 523.72 L 528.63 524.31 C 524.54 524.22 520.45 524.22 516.36 524.31 L 516.52 523.45 C 515.51 523.74 513.50 524.30 512.49 524.59 L 512.62 523.72 C 511.56 523.72 509.44 523.72 508.38 523.72 L 508.64 524.30 C 506.53 524.25 504.43 524.25 502.34 524.30 L 502.64 523.69 L 500.38 523.68 L 500.63 524.30 C 499.01 524.28 497.39 524.27 495.78 524.28 C 495.23 524.03 494.12 523.55 493.56 523.31 M 495.15 519.14 C 492.90 521.79 496.95 522.71 498.98 522.58 C 513.01 522.58 527.05 522.46 541.08 522.64 C 543.59 522.49 547.16 523.02 547.97 519.86 C 545.77 518.90 543.36 518.64 541.00 518.67 C 527.66 518.80 514.32 518.78 500.99 518.69 C 499.03 518.70 497.07 518.74 495.15 519.14 Z" />
<path fill="#ececec" opacity="1.00" d=" M 345.14 544.02 C 345.59 542.18 346.86 540.80 348.23 539.58 C 369.55 539.69 390.88 539.60 412.20 539.63 C 414.57 539.46 417.04 541.74 416.54 544.20 C 415.84 545.51 414.55 546.33 413.47 547.29 C 411.78 547.25 410.10 547.24 408.42 547.26 L 408.55 546.60 C 406.17 546.73 403.80 546.99 401.46 547.39 L 401.63 546.73 C 400.83 546.73 399.24 546.72 398.44 546.72 L 398.57 547.30 C 395.71 547.13 392.85 547.29 389.99 547.24 C 389.24 547.23 387.73 547.20 386.98 547.19 C 384.16 546.61 381.29 546.78 378.44 546.70 L 378.57 547.28 C 376.19 547.22 373.80 547.22 371.43 547.28 L 371.52 546.60 C 369.36 547.01 367.16 547.45 364.95 547.11 C 359.63 546.39 354.26 546.98 348.92 546.74 C 347.10 546.95 346.29 545.01 345.14 544.02 M 348.30 542.40 L 347.22 542.98 C 348.10 545.45 350.93 545.09 353.04 545.27 C 371.71 545.20 390.38 545.22 409.05 545.28 C 411.07 544.97 414.22 545.69 414.73 542.98 C 413.74 541.37 411.59 541.87 410.02 541.61 C 391.01 541.63 372.00 541.68 353.00 541.57 C 351.41 541.66 349.71 541.56 348.30 542.40 Z" />
</g>
<g id="#ffffffff">
<path fill="#ffffff" opacity="1.00" d=" M 289.46 248.68 C 308.41 246.48 327.56 248.76 346.08 252.93 C 382.75 261.62 416.25 281.71 442.51 308.56 C 445.62 312.00 449.34 315.09 451.33 319.37 C 454.12 325.18 450.68 332.81 444.89 335.23 C 441.19 336.66 438.14 333.57 435.82 331.16 C 410.82 304.05 378.07 283.44 341.82 275.60 C 324.59 271.53 306.70 271.01 289.11 272.33 C 247.63 275.83 208.70 296.30 179.74 325.78 C 177.09 328.27 174.09 331.94 169.98 330.82 C 163.17 328.46 159.96 319.16 164.02 313.13 C 167.33 308.45 171.87 304.85 175.93 300.87 C 206.91 271.99 247.14 252.72 289.46 248.68 Z" />
<path fill="#ffffff" opacity="1.00" d=" M 291.58 318.95 C 318.92 316.24 346.79 323.67 369.97 338.21 C 382.95 346.48 394.69 356.74 404.71 368.43 C 407.46 371.56 409.61 375.70 408.81 379.99 C 407.94 384.44 404.78 389.07 400.03 389.80 C 396.41 389.96 393.90 386.87 391.67 384.46 C 376.68 366.87 356.89 353.18 334.72 346.41 C 310.32 339.21 283.34 340.42 259.95 350.58 C 243.95 357.42 229.52 367.82 217.71 380.59 C 215.48 382.86 212.58 385.71 209.08 384.64 C 202.23 382.40 199.25 373.02 203.18 367.06 C 206.54 361.92 211.40 358.01 215.81 353.82 C 236.61 334.70 263.37 321.81 291.58 318.95 Z" />
<path fill="#ffffff" opacity="1.00" d=" M 248.84 403.82 C 264.97 389.96 286.61 381.70 307.99 383.99 C 324.48 385.61 339.87 393.01 352.64 403.36 C 341.56 402.29 330.40 404.77 320.72 410.22 C 299.69 403.20 275.43 408.16 258.77 422.75 C 254.91 425.64 252.08 430.60 246.96 431.32 C 239.82 430.44 235.74 421.37 238.66 415.09 C 240.81 410.38 245.07 407.17 248.84 403.82 Z" />
<path fill="#ffffff" opacity="1.00" d=" M 342.53 417.71 C 360.61 413.56 379.71 426.55 384.30 444.14 C 390.30 463.69 375.95 485.90 356.12 489.68 C 337.78 493.73 318.86 479.88 314.66 462.06 C 309.49 442.91 323.35 421.76 342.53 417.71 M 347.35 427.32 C 346.26 427.84 345.19 428.79 345.09 430.07 C 344.40 435.34 344.73 440.69 344.43 445.99 C 344.37 451.31 343.64 456.65 344.18 461.96 C 344.82 467.16 354.73 466.59 354.19 461.05 C 354.40 451.01 355.29 440.96 354.94 430.93 C 354.79 427.26 350.26 425.97 347.35 427.32 M 343.56 469.67 C 343.80 471.68 343.87 473.73 344.40 475.70 C 345.74 478.04 349.08 478.51 351.41 477.56 C 355.52 475.79 355.20 468.32 350.57 467.51 C 347.96 466.73 345.68 468.45 343.56 469.67 Z" />
<path fill="#ffffff" opacity="1.00" d=" M 285.39 460.14 C 288.42 452.57 298.04 447.84 305.52 452.03 C 305.22 460.07 306.86 468.08 310.51 475.26 C 307.76 477.57 304.85 480.11 301.16 480.67 C 290.72 482.31 280.54 469.93 285.39 460.14 Z" />
</g>
</svg>
