<?xml version="1.0" encoding="UTF-8" ?>
<!DOCTYPE svg PUBLIC "-//W3C//DTD SVG 1.1//EN" "http://www.w3.org/Graphics/SVG/1.1/DTD/svg11.dtd">
<svg width="200pt" height="200pt" viewBox="0 0 200 200" version="1.1" xmlns="http://www.w3.org/2000/svg">
<g id="#ffffffff">
<path fill="#ffffff" opacity="1.00" d=" M 85.56 16.87 C 103.09 14.01 121.58 16.27 137.53 24.25 C 156.48 33.32 171.72 49.78 179.40 69.34 C 186.63 87.99 187.33 109.33 180.30 128.15 C 169.99 157.97 141.52 180.36 110.16 183.61 C 88.86 186.28 66.68 180.41 49.47 167.58 C 34.59 156.46 23.19 140.52 18.35 122.52 C 15.57 113.61 15.09 104.18 15.29 94.92 C 16.42 73.72 26.19 53.17 41.76 38.78 C 53.82 27.43 69.25 19.71 85.56 16.87 M 95.31 20.47 C 85.13 21.00 75.11 23.66 65.86 27.94 C 46.89 36.69 31.82 53.23 24.59 72.80 C 13.87 101.02 21.65 134.77 42.96 155.97 C 55.48 168.55 72.24 176.89 89.86 179.05 C 113.49 182.17 138.43 174.23 155.57 157.58 C 166.94 147.11 174.91 133.06 178.54 118.08 C 183.93 95.52 178.50 70.80 164.53 52.35 C 148.70 31.05 121.83 18.56 95.31 20.47 Z" />
<path fill="#ffffff" opacity="1.00" d=" M 137.27 79.22 C 139.46 77.50 142.14 80.98 140.02 82.76 C 123.54 99.38 106.98 115.93 90.41 132.47 C 89.35 133.23 88.47 134.84 86.95 134.42 C 84.39 132.53 82.37 130.05 80.18 127.76 C 73.83 121.13 67.21 114.73 60.85 108.10 C 59.38 106.92 60.57 104.94 61.92 104.28 C 63.53 104.02 64.58 105.41 65.58 106.40 C 71.97 113.00 78.31 119.66 84.92 126.03 C 86.55 127.78 89.01 127.12 90.59 125.70 C 106.33 110.40 121.47 94.45 137.27 79.22 Z" />
</g>
</svg>
