<?xml version="1.0" encoding="UTF-8" ?>
<!DOCTYPE svg PUBLIC "-//W3C//DTD SVG 1.1//EN" "http://www.w3.org/Graphics/SVG/1.1/DTD/svg11.dtd">
<svg width="200pt" height="200pt" viewBox="0 0 200 200" version="1.1" xmlns="http://www.w3.org/2000/svg">
<g id="#ffffffff">
<path fill="#ffffff" opacity="1.00" d=" M 91.36 15.78 C 118.96 12.69 147.66 24.37 165.13 45.95 C 178.00 61.14 185.07 81.11 184.68 101.01 C 184.59 120.04 177.71 138.94 165.53 153.56 C 152.76 169.39 133.99 180.24 113.92 183.51 C 97.18 186.16 79.48 184.19 64.18 176.70 C 44.88 167.88 29.34 151.36 21.43 131.70 C 14.57 115.07 13.57 96.25 17.91 78.84 C 23.12 58.74 35.98 40.70 53.38 29.36 C 64.66 21.77 77.86 17.17 91.36 15.78 M 89.96 20.94 C 75.19 22.85 60.87 28.81 49.42 38.40 C 35.56 49.64 25.75 65.77 22.11 83.23 C 17.53 103.93 21.77 126.44 33.62 144.03 C 43.98 159.77 60.19 171.65 78.39 176.57 C 102.98 183.92 130.95 177.98 150.63 161.56 C 164.74 150.13 174.56 133.59 178.10 115.80 C 182.25 95.72 178.21 74.06 166.98 56.89 C 151.01 31.43 119.72 16.94 89.96 20.94 Z" />
<path fill="#ffffff" opacity="1.00" d=" M 98.52 51.27 C 99.68 50.31 101.33 50.69 102.70 50.76 C 104.61 51.83 104.35 54.09 104.37 55.95 C 104.31 76.65 104.44 97.36 104.31 118.07 C 104.57 121.87 97.81 122.59 97.37 118.76 C 97.17 97.49 97.36 76.21 97.28 54.94 C 97.33 53.68 97.20 51.96 98.52 51.27 Z" />
<path fill="#ffffff" opacity="1.00" d=" M 98.51 140.63 C 101.52 138.77 106.07 141.50 105.39 145.13 C 105.29 148.59 101.07 149.27 98.45 148.43 C 95.33 147.07 95.57 142.03 98.51 140.63 Z" />
</g>
</svg>
