<?xml version="1.0" encoding="UTF-8" ?>
<!DOCTYPE svg PUBLIC "-//W3C//DTD SVG 1.1//EN" "http://www.w3.org/Graphics/SVG/1.1/DTD/svg11.dtd">
<svg width="200pt" height="200pt" viewBox="0 0 200 200" version="1.1" xmlns="http://www.w3.org/2000/svg">
<g id="#ffffffff">
<path fill="#ffffff" opacity="1.00" d=" M 95.29 16.22 C 115.25 15.00 135.54 21.33 151.35 33.55 C 166.41 44.98 177.33 61.81 181.60 80.23 C 186.29 98.42 184.14 118.19 176.29 135.20 C 167.28 155.12 150.00 170.94 129.60 178.63 C 124.31 179.97 119.24 182.13 113.80 182.86 C 105.16 184.20 96.30 184.23 87.63 183.08 C 81.71 182.40 76.13 180.19 70.43 178.59 C 49.77 170.89 32.36 154.78 23.43 134.59 C 13.50 112.94 13.47 87.05 23.43 65.41 C 35.72 37.32 64.66 17.50 95.29 16.22 M 97.19 20.19 C 78.90 20.91 60.79 27.94 47.16 40.25 C 29.03 55.88 18.98 80.15 20.09 103.97 C 21.38 124.97 30.83 145.52 46.76 159.41 C 60.28 171.66 78.19 179.07 96.43 179.70 C 100.85 180.71 105.25 179.22 109.69 179.30 C 115.10 178.54 120.46 177.31 125.64 175.57 C 150.50 167.30 170.71 145.99 177.11 120.52 C 184.23 95.97 177.67 68.26 161.26 48.83 C 148.46 33.34 129.56 23.17 109.66 20.70 C 105.48 20.81 101.35 19.37 97.19 20.19 Z" />
<path fill="#ffffff" opacity="1.00" d=" M 70.83 72.93 C 71.06 71.34 72.39 71.09 73.72 71.02 C 81.95 78.61 89.59 86.81 97.68 94.55 C 99.13 96.04 101.65 95.54 102.88 94.00 C 110.66 86.25 118.41 78.48 126.18 70.71 C 126.81 70.69 128.06 70.65 128.68 70.63 C 129.55 72.11 129.55 73.93 128.05 75.00 C 120.72 82.36 113.36 89.68 106.02 97.03 C 104.38 98.24 103.98 100.94 105.49 102.40 C 112.99 110.06 120.67 117.53 128.16 125.19 C 129.30 126.08 128.95 127.58 128.65 128.77 C 127.41 128.65 125.85 129.19 125.01 127.96 C 117.62 120.65 110.28 113.28 102.88 105.96 C 101.65 104.38 99.09 104.01 97.65 105.53 C 89.81 113.08 82.28 120.96 74.41 128.48 C 73.38 130.00 71.21 129.10 70.82 127.57 C 70.39 126.19 71.69 125.34 72.48 124.46 C 79.68 117.31 86.83 110.11 94.01 102.95 C 95.64 101.73 96.01 99.02 94.49 97.57 C 87.36 90.36 80.16 83.20 72.98 76.04 C 72.09 75.14 71.14 74.21 70.83 72.93 Z" />
</g>
</svg>
